<?xml version="1.0" encoding="UTF-8" standalone="no" ?>
<!DOCTYPE svg PUBLIC "-//W3C//DTD SVG 1.1//EN" "http://www.w3.org/Graphics/SVG/1.1/DTD/svg11.dtd">
<svg xmlns="http://www.w3.org/2000/svg" xmlns:xlink="http://www.w3.org/1999/xlink" version="1.1" width="640" height="640" viewBox="0 0 640 640" xml:space="preserve">
<desc>Created with Fabric.js 5.3.0</desc>
<defs>
</defs>
<g transform="matrix(3.1746520533 0 0 3.1746520533 317.7975002399 321.0233574769)" id="KvWpBo8QX2wmKcRbZ-sMR"  >
<g style=""   >
		<g transform="matrix(0.1953125 0 0 0.1953125 -1.9967543945 0.7620123047)" id="6G9H8c97Q6m-yTCtuInRu"  >
<path style="stroke: none; stroke-width: 1; stroke-dasharray: none; stroke-linecap: butt; stroke-dashoffset: 0; stroke-linejoin: miter; stroke-miterlimit: 4; fill: rgb(230,230,230); fill-rule: nonzero; opacity: 1;"  transform=" translate(-501.7766175, -515.901503)" d="M 501.776618 515.901503 M 73.69505399999997 515.901503 C 73.68766188968462 668.8452432380279 155.27793028612743 810.1742499272987 287.72986280119756 886.6482540441486 C 420.1817953162676 963.1222581609984 583.3714396837321 963.1222581609985 715.8233721988022 886.6482540441488 C 848.2753047138724 810.174249927299 929.8655731103154 668.8452432380282 929.8581810000001 515.9015030000002 C 929.8655731103154 362.95776276197216 848.2753047138726 221.62875607270132 715.8233721988025 145.15475195585145 C 583.3714396837324 68.68074783900158 420.18179531626777 68.68074783900158 287.72986280119767 145.1547519558514 C 155.27793028612757 221.6287560727012 73.6876618896847 362.9577627619721 73.69505400000003 515.901503 Z" stroke-linecap="round" />
</g>
		<g transform="matrix(0.1953125 0 0 0.1953125 -1.6510265625 38.4392859375)" id="cPe47Pi6_NrEDEvROgMQp"  >
<path style="stroke: none; stroke-width: 1; stroke-dasharray: none; stroke-linecap: butt; stroke-dashoffset: 0; stroke-linejoin: miter; stroke-miterlimit: 4; fill: rgb(230,230,230); fill-rule: nonzero; opacity: 1;"  transform=" translate(-503.546744, -708.809144)" d="M 463.809215 668.168489 L 543.284273 668.168489 L 543.284273 749.449799 L 463.809215 749.449799 z" stroke-linecap="round" />
</g>
		<g transform="matrix(0.1953125 0 0 0.1953125 -1.6510266602 38.4533972656)" id="S5gXWgc4RCBST2dkd_6_g"  >
<path style="stroke: none; stroke-width: 1; stroke-dasharray: none; stroke-linecap: butt; stroke-dashoffset: 0; stroke-linejoin: miter; stroke-miterlimit: 4; fill: rgb(230,230,230); fill-rule: nonzero; opacity: 1;"  transform=" translate(-503.5467435, -708.881394)" d="M 557.734283 763.899809 L 449.359204 763.899809 L 449.359204 653.862979 L 557.734283 653.862979 z M 478.259225 734.999788 L 528.834262 734.999788 L 528.834262 682.763 L 478.25922499999996 682.763 z" stroke-linecap="round" />
</g>
		<g transform="matrix(0.1953125 0 0 0.1953125 33.7684329102 -20.1792140625)" id="xbn7J37um1Uti09OCHtnz"  >
<path style="stroke: none; stroke-width: 1; stroke-dasharray: none; stroke-linecap: butt; stroke-dashoffset: 0; stroke-linejoin: miter; stroke-miterlimit: 4; fill: rgb(230,230,230); fill-rule: nonzero; opacity: 1;"  transform=" translate(-684.8943765, -408.682424)" d="M 684.894377 408.682424 M 655.9943549999999 408.682424 C 655.9943549999999 424.6434651442321 668.9333353557679 437.5824455 684.8943764999999 437.5824455 C 700.8554176442319 437.5824455 713.7943979999999 424.6434651442321 713.7943979999999 408.682424 C 713.7943979999999 392.72138285576796 700.8554176442319 379.78240250000005 684.8943764999999 379.78240250000005 C 668.9333353557679 379.78240250000005 655.9943549999999 392.72138285576796 655.9943549999999 408.682424 Z" stroke-linecap="round" />
</g>
		<g transform="matrix(0.1953125 0 0 0.1953125 33.7684330078 -20.1792140625)" id="8jUbGmonor55cS8La78U_"  >
<path style="stroke: none; stroke-width: 1; stroke-dasharray: none; stroke-linecap: butt; stroke-dashoffset: 0; stroke-linejoin: miter; stroke-miterlimit: 4; fill: rgb(230,230,230); fill-rule: nonzero; opacity: 1;"  transform=" translate(-684.894377, -408.682424)" d="M 684.894377 448.419953 C 662.9479457373411 448.419953 645.156848 430.62885526265893 645.156848 408.682424 C 645.156848 386.7359927373411 662.9479457373411 368.94489500000003 684.894377 368.94489500000003 C 706.8408082626588 368.94489500000003 724.631906 386.7359927373411 724.631906 408.682424 C 724.631906 430.62885526265893 706.8408082626588 448.419953 684.894377 448.419953 z M 684.894377 390.619911 C 674.9187265264795 390.619911 666.831864 398.70677352647954 666.8318639999999 408.68242399999997 C 666.8318639999999 418.6580744735204 674.9187265264794 426.744937 684.8943769999998 426.744937 C 694.8700274735204 426.744937 702.9568899999999 418.6580744735205 702.9568899999999 408.682424 C 702.9568899999999 398.7067735264796 694.8700274735204 390.619911 684.894377 390.619911 z" stroke-linecap="round" />
</g>
		<g transform="matrix(0.1953125 0 0 0.1953125 41.2756650391 -5.619840625)" id="zaZaJ1RL2r50wv8AAZbLS"  >
<path style="stroke: none; stroke-width: 1; stroke-dasharray: none; stroke-linecap: butt; stroke-dashoffset: 0; stroke-linejoin: miter; stroke-miterlimit: 4; fill: rgb(230,230,230); fill-rule: nonzero; opacity: 1;"  transform=" translate(-723.331405, -483.226416)" d="M 743.70592 590.391307 L 702.920765 590.391307 C 699.2297746103875 590.391307 696.2376355522846 587.3991683896123 696.237635 583.708178 L 696.237635 376.061525 C 710.6090641518398 376.061525 724.3918769812092 381.7705530015747 734.5540119898172 391.9326880101827 C 744.7161469984253 402.09482301879075 750.425175 415.87763584816014 750.425175 430.249065 L 750.425175 583.527552 C 750.425175 585.3000282797414 749.7210615394487 586.9999085456539 748.4677315425512 588.2532385425512 C 747.2144015456538 589.5065685394487 745.5145212797413 590.210682 743.742045 590.210682 z" stroke-linecap="round" />
</g>
		<g transform="matrix(0.1953125 0 0 0.1953125 41.2686092773 -5.6551188477)" id="QZeTWN1qIeZZ8Hb7uWS3j"  >
<path style="stroke: none; stroke-width: 1; stroke-dasharray: none; stroke-linecap: butt; stroke-dashoffset: 0; stroke-linejoin: miter; stroke-miterlimit: 4; fill: rgb(230,230,230); fill-rule: nonzero; opacity: 1;"  transform=" translate(-723.2952795, -483.0457915)" d="M 743.70592 604.660693 L 702.920765 604.660693 C 691.2433953952436 604.6607100027613 681.7714262368115 595.2049046020074 681.751499 583.527552 L 681.751499 361.43089 L 696.20151 361.43089 C 714.4053200821862 361.43089 731.8635494964848 368.6623253984234 744.7355870490308 381.53436295096924 C 757.6076246015766 394.40640050351516 764.83906 411.86462991781383 764.83906 430.06844 L 764.83906 583.527552 C 764.8390602652165 589.1324093833487 762.6125395248993 594.5077064910938 758.6493069553181 598.4709392482114 C 754.6860743857369 602.4341720053288 749.3107773833486 604.660693 743.70592 604.660693 z M 710.65152 575.760672 L 735.939039 575.760672 L 735.939039 430.06844 C 735.9435775218718 413.694653337122 725.9043741725576 398.994391616021 710.65152 393.04028800000003 z" stroke-linecap="round" />
</g>
		<g transform="matrix(0.1953125 0 0 0.1953125 -37.7548860352 -18.2389048828)" id="MjOnpPO-JLWjUWbdATKsQ"  >
<path style="stroke: none; stroke-width: 1; stroke-dasharray: none; stroke-linecap: butt; stroke-dashoffset: 0; stroke-linejoin: miter; stroke-miterlimit: 4; fill: rgb(230,230,230); fill-rule: nonzero; opacity: 1;"  transform=" translate(-318.6949835, -418.616807)" d="M 318.694983 418.616807 M 289.794962 418.616807 C 289.794962 434.57784814423206 302.73394235576797 447.5168285 318.69498350000003 447.5168285 C 334.65602464423205 447.5168285 347.595005 434.57784814423206 347.595005 418.616807 C 347.595005 402.6557658557679 334.65602464423205 389.7167855 318.69498350000003 389.7167855 C 302.73394235576797 389.7167855 289.794962 402.6557658557679 289.794962 418.616807 Z" stroke-linecap="round" />
</g>
		<g transform="matrix(0.1953125 0 0 0.1953125 -37.7548859375 -18.2389048828)" id="dN7iBG3tDp8GAHSN2tqw4"  >
<path style="stroke: none; stroke-width: 1; stroke-dasharray: none; stroke-linecap: butt; stroke-dashoffset: 0; stroke-linejoin: miter; stroke-miterlimit: 4; fill: rgb(230,230,230); fill-rule: nonzero; opacity: 1;"  transform=" translate(-318.694984, -418.616807)" d="M 318.694983 458.354336 C 296.74855186751586 458.35433544771524 278.95745463181015 440.56323746581745 278.957455 418.61680633333333 C 278.9574553681898 396.6703752008492 296.74855320084913 378.8792778159051 318.69498433333325 378.879278 C 340.6414154658174 378.8792781840949 358.432513 396.6703758675158 358.432513 418.61680699999994 C 358.432513 429.1558551295381 354.24589236335964 439.2632512711708 346.79365986994367 446.71548357705046 C 339.3414273765277 454.16771588293005 329.2340311295381 458.3543362652165 318.69498300000004 458.354336 z M 318.694983 400.554293 C 308.71933278682906 400.5542935522847 300.6324708159051 408.6411561201624 300.632471 418.6168063333333 C 300.632471184095 428.5924565465042 308.7193334534958 436.679318815905 318.6949836666667 436.67931899999996 C 328.67063387983757 436.6793191840949 336.75749644771525 428.59245721317086 336.757497 418.616807 C 336.7574972652165 413.8263303579368 334.8544879462888 409.2320590911484 331.4671094275702 405.84468057242975 C 328.07973090885156 402.45730205371115 323.4854596420632 400.5542927347835 318.694983 400.554293 z" stroke-linecap="round" />
</g>
		<g transform="matrix(0.1953125 0 0 0.1953125 -2.1237564453 24.634869043)" id="mSH3xjh-IKDN8YVKRaqm-"  >
<path style="stroke: none; stroke-width: 1; stroke-dasharray: none; stroke-linecap: butt; stroke-dashoffset: 0; stroke-linejoin: miter; stroke-miterlimit: 4; fill: rgb(230,230,230); fill-rule: nonzero; opacity: 1;"  transform=" translate(-501.126367, -638.1305295)" d="M 547.330276 668.312989 L 455.861709 668.312989 C 445.91686761903975 668.2800524991111 436.8194075212587 662.7073359064839 432.272067 653.862979 L 408.393424 607.94807 L 593.85931 607.94807 L 571.100543 653.465604 C 566.6404814570564 662.527985454153 557.4306650479233 668.2806212998386 547.330276 668.312989 z" stroke-linecap="round" />
</g>
		<g transform="matrix(0.1953125 0 0 0.1953125 -2.1555069336 24.6490104075)" id="Y2P_1kMlfrrDSJ2yCJa1U"  >
<path style="stroke: none; stroke-width: 1; stroke-dasharray: none; stroke-linecap: butt; stroke-dashoffset: 0; stroke-linejoin: miter; stroke-miterlimit: 4; fill: rgb(230,230,230); fill-rule: nonzero; opacity: 1;"  transform=" translate(-500.9638045, -638.2029332865)" d="M 547.330276 679.150497 L 455.861709 679.150497 C 441.89516099436577 679.1732900409321 429.0849785872187 671.3951816837778 422.66281000000004 658.9927329999999 L 390.54766100000006 597.255062 L 611.379948 597.255062 L 580.78205 658.4508569999999 C 574.5017559187811 671.1749407305373 561.5197468920489 679.2080846029701 547.330276 679.150497 z M 426.275312 619.038453 L 441.881324 649.094475 C 444.5917508763884 654.3117695260576 449.98237448303126 657.5851459756337 455.861709 657.583857 L 547.330276 657.583857 C 553.301218358831 657.6013877595635 558.7637698117902 654.2258107743459 561.419036 648.8777249999999 L 576.302547 619.0384529999999 z" stroke-linecap="round" />
</g>
		<g transform="matrix(0.1953125 0 0 0.1953125 -1.6347832439 52.2613419922)" id="wj7teNIGUZhqKlkB7goIJ"  >
<path style="stroke: none; stroke-width: 1; stroke-dasharray: none; stroke-linecap: butt; stroke-dashoffset: 0; stroke-linejoin: miter; stroke-miterlimit: 4; fill: rgb(230,230,230); fill-rule: nonzero; opacity: 1;"  transform=" translate(-503.6299097914, -779.578071)" d="M 590.210682 812.090595 L 417.20793100000003 812.090595 C 403.697171 812.090595 393.65441400000003 805.551965 396.58054000000004 798.652085 L 414.64305400000006 755.699428 C 416.8105560000001 750.641924 425.4805620000001 747.065547 435.27044400000005 747.065547 L 571.7869190000001 747.065547 C 581.6490510000001 747.065547 590.2106820000001 750.67805 592.3781840000001 755.699428 L 610.6213220000002 798.652085 C 613.7280740000002 805.5880900000001 603.6853170000002 812.090595 590.2106820000001 812.090595 z" stroke-linecap="round" />
</g>
		<g transform="matrix(0.1953125 0 0 0.1953125 -1.8873915039 19.3325336914)" id="Hm1Ze7NOBwlhRoGKHbG_I"  >
<path style="stroke: none; stroke-width: 1; stroke-dasharray: none; stroke-linecap: butt; stroke-dashoffset: 0; stroke-linejoin: miter; stroke-miterlimit: 4; fill: rgb(230,230,230); fill-rule: nonzero; opacity: 1;"  transform=" translate(-502.3365555, -610.9825725)" d="M 590.210682 826.540605 L 417.20793100000003 826.540605 C 402.75792 826.540605 390.945037 821.338601 385.16503200000005 812.596345 C 381.24761101488696 806.814720980309 380.53983983837173 799.4375662158612 383.2865310000001 793.0165810000001 L 401.52966900000007 750.063924 C 406.04529700000006 739.443166 419.3393070000001 732.615536 435.4510690000001 732.615537 L 571.9675440000001 732.615537 C 588.0431810000001 732.615537 601.3371910000001 739.443167 605.8528190000001 750.027799 L 623.915332 792.980456 C 626.6684339758423 799.4126572587813 625.9606502419077 806.8035541286074 622.036831 812.596345 C 616.437452 821.338601 604.480068 826.540605 590.210682 826.540605 z M 412.872927 797.2793340000001 C 414.3042310832117 797.5290412906566 415.75503818160144 797.6499417706315 417.20793100000003 797.6405840000001 L 590.210682 797.6405840000001 C 591.6515375714204 797.6483658177507 593.0902100332639 797.5274690565863 594.50956 797.2793340000001 L 580.05955 762.9605590000001 C 577.5251942719183 761.9378729850943 574.8079542019337 761.4460648568919 572.075919 761.515558 L 435.45106899999996 761.515558 C 432.7073981446873 761.4472439951348 429.9785959446668 761.9389200396221 427.431313 762.9605590000001 z M 360.238764 395.42454 L 644.434347 395.42454 L 644.434347 424.32456099999996 L 360.238764 424.32456099999996 z" stroke-linecap="round" />
</g>
		<g transform="matrix(0.1953125 0 0 0.1953125 -2.1237564453 -14.7886827148)" id="Raawk7qmboKSK6mYqUtfd"  >
<path style="stroke: none; stroke-width: 1; stroke-dasharray: none; stroke-linecap: butt; stroke-dashoffset: 0; stroke-linejoin: miter; stroke-miterlimit: 4; fill: rgb(230,230,230); fill-rule: nonzero; opacity: 1;"  transform=" translate(-501.126367, -436.2819445)" d="M 576.085797 240.664926 C 572.978963505415 279.42310790255647 540.6229947840735 309.2949936022046 501.74049199999996 309.302477 C 462.5793666052224 309.3030340539647 430.0912346209851 279.0081268221955 427.359063 239.942426 C 379.2401935429267 266.71459449825875 349.4036423327313 317.45608800774346 349.401256 372.52127299999995 L 349.401256 614.55895 C 349.401256 624.5346004735204 357.4881185264796 632.621463 367.463769 632.621463 L 634.788965 632.621463 C 644.7646154735204 632.621463 652.8514779999999 624.5346004735204 652.8514779999999 614.55895 L 652.8514779999999 372.52127299999995 C 652.8303499381625 317.9641135010887 623.519698374339 267.6187587403381 576.085797 240.66492599999998 z" stroke-linecap="round" />
</g>
		<g transform="matrix(0.1953125 0 0 0.1953125 -2.1096372663 -15.6847527344)" id="nDwkOIhKZsdYiwd9_7fOR"  >
<path style="stroke: none; stroke-width: 1; stroke-dasharray: none; stroke-linecap: butt; stroke-dashoffset: 0; stroke-linejoin: miter; stroke-miterlimit: 4; fill: rgb(230,230,230); fill-rule: nonzero; opacity: 1;"  transform=" translate(-501.1986571965, -431.694066)" d="M 634.861215 647.107599 L 367.536019 647.107599 C 349.5798478162924 647.107599 335.023495 632.5512461837077 335.023495 614.5950750000001 L 335.023495 372.55739800000003 C 335.07530579265506 312.27124189180137 367.73196325784704 256.7286666432084 420.38693299999994 227.3709170000001 L 440.21957199999997 216.28053300000005 L 441.845199 238.96705000000006 C 444.0130857043775 270.38052900286004 470.0550660698152 294.79760274484966 501.5429390445601 294.9399099915812 C 533.030812019305 295.08221723831275 559.292426595815 270.9015259473169 561.744161 239.50892500000006 L 563.5504129999999 216.75015900000005 L 583.310802 227.98504200000005 C 635.2067581028291 257.6022427979953 667.2788783296526 312.73265981424527 667.373739 372.485148 L 667.373739 614.522825 C 667.3929287418894 623.1581938908774 663.9759853305419 631.4464548875776 657.8766231777714 637.5593711684601 C 651.7772610250008 643.6722874493425 643.4966052127971 647.1076203219461 634.861215 647.107599 z M 417.569181 263.712693 C 383.7144014427807 289.6851418816198 363.86213484818484 329.9236966393923 363.851266 372.593523 L 363.851266 614.6312 C 363.85126600000007 616.626330315618 365.46863868438203 618.243703 367.463769 618.243703 L 634.788965 618.243703 C 636.784095315618 618.243703 638.4014679999999 616.626330315618 638.4014679999999 614.6312 L 638.4014679999999 372.593523 C 638.3302949724399 330.37194327989477 618.8892117813489 290.5177230883313 585.658929 264.471319 C 573.0625279751979 300.19806721692476 539.2262362424217 324.03157509663276 501.34430616527914 323.86060561498 C 463.4623760881367 323.6896361333272 429.8425901039322 299.5516841395492 417.56918099999996 263.712693 z" stroke-linecap="round" />
</g>
		<g transform="matrix(0.1953125 0 0 0.1953125 -2.0073378906 -48.4336542433)" id="K0zrZoLOIURI7xnxjDwb5"  >
<path style="stroke: none; stroke-width: 1; stroke-dasharray: none; stroke-linecap: butt; stroke-dashoffset: 0; stroke-linejoin: miter; stroke-miterlimit: 4; fill: rgb(230,230,230); fill-rule: nonzero; opacity: 1;"  transform=" translate(-501.72243, -264.0196902745)" d="M 501.740492 308.254851 C 540.6229944293739 308.24736764405463 572.9789630125233 278.37548250720107 576.085797 239.617301 C 553.2546936444899 226.58676761641328 527.4142515786622 219.74994688642084 501.1263669999999 219.78466099999994 C 475.30469538932044 219.75461029209916 449.9066927043818 226.3466482019914 427.359063 238.93092500000003 C 430.1092969870552 277.9823587777098 462.5923341440573 308.2567390148422 501.740492 308.254851 z" stroke-linecap="round" />
</g>
		<g transform="matrix(0.1953125 0 0 0.1953125 -2.0002822266 -48.436079262)" id="wowBAbimehKvwl8YsX5FN"  >
<path style="stroke: none; stroke-width: 1; stroke-dasharray: none; stroke-linecap: butt; stroke-dashoffset: 0; stroke-linejoin: miter; stroke-miterlimit: 4; fill: rgb(230,230,230); fill-rule: nonzero; opacity: 1;"  transform=" translate(-501.758555, -264.0072741786)" d="M 501.740492 322.704861 C 455.04718624618704 322.5643516969675 416.34497911575454 286.4758821733047 412.945177 239.90630099999998 L 412.294927 230.76666899999998 L 420.31468299999995 226.28716599999998 C 471.0229581922777 198.06201955499773 532.7825999689346 198.3358980324579 583.2385519999998 227.00966599999992 L 591.2221829999999 231.56141999999997 L 590.4996819999999 240.73717599999998 C 586.5914755437539 286.91621047393517 548.0840511224907 322.4771978502667 501.7404919999999 322.704861 z M 443.109575 247.059056 C 449.36053747955975 274.27876137814405 473.5255486662534 293.6148670444737 501.45349517095775 293.7440832361864 C 529.381441675662 293.87329942789904 553.7243418898126 274.76162872237455 560.22691 247.600931 C 523.2274240444491 229.94037465279735 480.2708960679522 229.7416246676029 443.10957499999984 247.05905600000006 z" stroke-linecap="round" />
</g>
		<g transform="matrix(0.1953125 0 0 0.1953125 -45.2550625 -3.7148097656)" id="1FiIrrw8Ynq5BJRg5OzyK"  >
<path style="stroke: none; stroke-width: 1; stroke-dasharray: none; stroke-linecap: butt; stroke-dashoffset: 0; stroke-linejoin: miter; stroke-miterlimit: 4; fill: rgb(230,230,230); fill-rule: nonzero; opacity: 1;"  transform=" translate(-280.29408, -492.980174)" d="M 307.38785 385.815283 L 307.38785 593.461935 C 307.38785 595.2344112797414 306.68373653944866 596.9342915456539 305.4304065425513 598.1876215425513 C 304.17707654565385 599.4409515394487 302.47719627974135 600.145065 300.70472 600.145065 L 259.88344 600.145065 C 258.11096372025867 600.145065 256.41108345434617 599.4409515394487 255.15775345744876 598.1876215425513 C 253.90442346055133 596.9342915456539 253.20031 595.2344112797414 253.20031 593.461935 L 253.20031 440.002822 C 253.20031055228472 410.0758704176782 277.46089841767815 385.81528299999997 307.38784999999996 385.81528299999997 z" stroke-linecap="round" />
</g>
		<g transform="matrix(0.1953125 0 0 0.1953125 -45.2550624023 -3.7148098633)" id="rigl0OZNXz188tOjyJG4k"  >
<path style="stroke: none; stroke-width: 1; stroke-dasharray: none; stroke-linecap: butt; stroke-dashoffset: 0; stroke-linejoin: miter; stroke-miterlimit: 4; fill: rgb(230,230,230); fill-rule: nonzero; opacity: 1;"  transform=" translate(-280.2940805, -492.9801735)" d="M 300.70472 614.595075 L 259.88344 614.595075 C 254.27858278991235 614.595075 248.90328593907063 612.3685541425999 244.9400533982353 608.4053216017646 C 240.9768208574 604.4420890609293 238.7503 599.0667922100876 238.7503 593.4619349999999 L 238.7503 440.002822 C 238.7503 402.09534986925144 269.48037786925147 371.365272 307.38785 371.365272 L 321.83786100000003 371.365272 L 321.83786100000003 593.461935 C 321.8179742075679 605.1251990175696 312.3679840185105 614.5751887594624 300.70472 614.5950750000001 z M 267.650321 585.6950539999999 L 292.93784 585.6950539999999 L 292.93784 402.97466999999995 C 277.6849858274424 408.9287736160209 267.6457824781282 423.629035337122 267.650321 440.0028219999999 z" stroke-linecap="round" />
</g>
		<g transform="matrix(0.1953125 0 0 0.1953125 -2.1363459649 -13.820953381)" id="W8ikWoipI2xFWFZEcFu-S"  >
<path style="stroke: none; stroke-width: 1; stroke-dasharray: none; stroke-linecap: butt; stroke-dashoffset: 0; stroke-linejoin: miter; stroke-miterlimit: 4; fill: rgb(230,230,230); fill-rule: nonzero; opacity: 1;"  transform=" translate(-501.0619086597, -441.2367186892)" d="M 363.851266 574.857546 L 363.851266 613.6919489999999 C 363.851266 613.6919489999999 362.261765 618.2075769999999 370.245396 618.2075779999999 L 633.343964 618.2075779999999 C 633.669089 618.2075779999999 638.401468 619.3274539999999 638.401468 613.366824 L 638.401468 366.52451799999994 C 638.401468 366.52451799999994 635.403091 297.30896699999994 584.213928 264.18231799999995 L 584.213928 384.69540699999993 C 584.233461831303 470.0292662829555 523.8734003273381 543.4511962699 440.147322 559.93791 z" stroke-linecap="round" />
</g>
		<g transform="matrix(0.1953125 0 0 0.1953125 -2.6529316406 -31.4682847656)" id="pUCLAEo0xSjSZHlVv7QbN"  >
<path style="stroke: none; stroke-width: 1; stroke-dasharray: none; stroke-linecap: butt; stroke-dashoffset: 0; stroke-linejoin: miter; stroke-miterlimit: 4; fill: rgb(230,230,230); fill-rule: nonzero; opacity: 1;"  transform=" translate(-498.41699, -350.882382)" d="M 604.082692 361.71989 L 498.74211499999996 383.394906 L 392.75128799999993 361.71988999999996 L 392.75128799999993 318.36985799999997 L 497.5138639999999 340.04487399999994 L 604.082692 318.3698579999999 L 604.082692 361.7198899999999 z" stroke-linecap="round" />
</g>
		<g transform="matrix(0.1953125 0 0 0.1953125 -2.6564594727 -31.6870105469)" id="yZcGLvId6JSHaX9zh-vV3"  >
<path style="stroke: none; stroke-width: 1; stroke-dasharray: none; stroke-linecap: butt; stroke-dashoffset: 0; stroke-linejoin: miter; stroke-miterlimit: 4; fill: rgb(230,230,230); fill-rule: nonzero; opacity: 1;"  transform=" translate(-498.3989275, -349.762506)" d="M 498.742115 394.449164 L 381.91378000000003 370.570521 L 381.91378000000003 305.075848 L 497.513864 328.990616 L 614.884075 305.111973 L 614.884075 370.570521 z M 403.588796 352.869258 L 498.70599 372.340648 L 593.245185 352.905383 L 593.245185 331.627743 L 497.513864 351.099132 L 403.588796 331.699993 z" stroke-linecap="round" />
</g>
		<g transform="matrix(0.1953125 0 0 0.1953125 -2.197840918 -12.6860932617)" id="ffU4ph4llC3hQXn7YMTF6"  >
<path style="stroke: none; stroke-width: 1; stroke-dasharray: none; stroke-linecap: butt; stroke-dashoffset: 0; stroke-linejoin: miter; stroke-miterlimit: 4; fill: rgb(230,230,230); fill-rule: nonzero; opacity: 1;"  transform=" translate(-500.7470545, -447.0472025)" d="M 349.401256 418.616807 L 652.092853 418.616807 L 652.092853 475.477598 L 349.401256 475.477598 z" stroke-linecap="round" />
</g>
		<g transform="matrix(0.1953125 0 0 0.1953125 -2.197840918 -12.6860932617)" id="cDRWDMixJJNoNoWXKJ-E_"  >
<path style="stroke: none; stroke-width: 1; stroke-dasharray: none; stroke-linecap: butt; stroke-dashoffset: 0; stroke-linejoin: miter; stroke-miterlimit: 4; fill: rgb(230,230,230); fill-rule: nonzero; opacity: 1;"  transform=" translate(-500.7470545, -447.0472025)" d="M 662.930361 486.315106 L 338.563748 486.315106 L 338.563748 407.77929900000004 L 662.930361 407.77929900000004 z M 360.23876399999995 464.64009 L 641.2553449999999 464.64009 L 641.2553449999999 429.454315 L 360.238764 429.454315 z" stroke-linecap="round" />
</g>
		<g transform="matrix(0.1953125 0 0 0.1953125 -2.053199707 17.042969043)" id="ld7XglzETmwNkGRrojOQE"  >
<path style="stroke: none; stroke-width: 1; stroke-dasharray: none; stroke-linecap: butt; stroke-dashoffset: 0; stroke-linejoin: miter; stroke-miterlimit: 4; fill: rgb(230,230,230); fill-rule: nonzero; opacity: 1;"  transform=" translate(-501.4876175, -599.2600015)" d="M 735.939039 576.663797 L 735.939039 427.64806300000004 C 734.9448529788936 417.66910593370517 730.6623663212962 408.30354929945497 723.764905 401.02391900000003 L 723.764905 519.33338 C 723.764905 526.8151179932115 717.6997579932115 532.880265 710.21802 532.880265 L 710.21802 576.663797 z M 292.793339 403.19142 L 292.793339 586.52593 L 267.036196 586.52593 L 267.036196 512.975376 C 275.76077749030287 512.9753981873403 282.83903787931223 505.9132977515965 282.85895700000003 497.188739 L 282.85895700000003 409.043675 C 282.85895700000003 409.043675 288.71121100000005 403.191421 292.79333900000006 403.19142 z M 548.703027 464.242715 L 640.6773440000001 464.242715 L 640.6773440000001 429.45431499999995 L 555.928032 429.45431499999995 L 548.703027 464.242715 z M 500.765117 464.820715 L 520.344881 464.820715 L 527.569886 430.06844 L 507.990122 430.06844 L 500.765117 464.820715 z M 363.851266 485.917731 L 558.926409 485.917731 L 558.926409 510.302124 L 363.851266 510.302124 z M 478.114725 760.901432 L 494.804487 797.496084 L 595.051436 797.496084 L 577.8920479999999 760.467932 L 478.1147249999999 760.901432 z" stroke-linecap="round" />
</g>
</g>
</g>
<g transform="matrix(2.005058019 0 0 2.005058019 320 324.6249958297)" id="IW4vmOW7pVAZBGX05eWN9"  >
<g style=""   >
		<g transform="matrix(0.1953125 0 0 0.1953125 -5.8666666016 -13.6)" id="n2BJScv6ZaKiLdsxH2nld"  >
<path style="stroke: none; stroke-width: 1; stroke-dasharray: none; stroke-linecap: butt; stroke-dashoffset: 0; stroke-linejoin: miter; stroke-miterlimit: 4; fill: rgb(251,223,131); fill-rule: nonzero; opacity: 1;"  transform=" translate(-481.962667, -442.368)" d="M 582.997333 542.037333 L 380.928 542.037333 C 325.973333 542.037333 281.258667 497.32266599999997 281.258667 442.368 C 281.258667 387.413334 325.973334 342.698667 380.928 342.698667 L 582.997333 342.698667 C 637.952 342.698667 682.6666660000001 387.413334 682.6666670000001 442.368 C 682.6666680000001 497.32266599999997 638.2933340000001 542.037333 582.997333 542.037333 z" stroke-linecap="round" />
</g>
		<g transform="matrix(0.1953125 0 0 0.1953125 -5.5666666016 2.2)" id="1M6gAe_rxr_7udtYJQf_Z"  >
<path style="stroke: none; stroke-width: 1; stroke-dasharray: none; stroke-linecap: butt; stroke-dashoffset: 0; stroke-linejoin: miter; stroke-miterlimit: 4; fill: rgb(0,0,0); fill-rule: nonzero; opacity: 1;"  transform=" translate(-483.498667, -523.264)" d="M 646.485333 774.144 L 320.512 774.144 C 262.826667 774.144 215.722667 727.04 215.722667 669.3546670000001 L 215.722667 463.87200000000007 C 215.722667 358.4000000000001 301.397334 272.38400000000007 407.210667 272.38400000000007 L 559.786667 272.38400000000007 C 665.258667 272.38400000000007 751.2746669999999 358.05866700000007 751.2746669999999 463.87200000000007 L 751.2746669999999 669.3546670000001 C 751.2746669999999 727.0400000000001 704.1706669999999 774.144 646.4853329999999 774.144 z M 407.210667 313.685333 C 324.266667 313.685333 257.024 380.928 257.024 463.872 L 257.024 669.3546670000001 C 257.024 704.5120000000001 285.354667 732.8426670000001 320.512 732.8426670000001 L 646.4853330000001 732.8426670000001 C 681.6426660000001 732.8426670000001 709.9733330000001 704.5120000000002 709.9733330000001 669.3546670000001 L 709.9733330000001 463.87200000000007 C 709.9733330000001 380.92800000000005 642.7306660000002 313.68533300000007 559.7866670000001 313.68533300000007 L 407.21066700000006 313.68533300000007 z" stroke-linecap="round" />
</g>
		<g transform="matrix(0.1953125 0 0 0.1953125 -5.5666666992 -22.6)" id="VHuxdhw8MTxoW940shMAH"  >
<path style="stroke: none; stroke-width: 1; stroke-dasharray: none; stroke-linecap: butt; stroke-dashoffset: 0; stroke-linejoin: miter; stroke-miterlimit: 4; fill: rgb(0,0,0); fill-rule: nonzero; opacity: 1;"  transform=" translate(-483.4986665, -396.288)" d="M 389.461333 517.461333 C 349.52533300000005 517.461333 316.757333 485.03466599999996 316.757333 444.75733299999996 C 316.757333 404.821333 349.184 372.05333299999995 389.461333 372.05333299999995 C 429.738666 372.05333299999995 462.16533300000003 404.47999999999996 462.16533300000003 444.75733299999996 C 462.16533300000003 484.69333299999994 429.738666 517.461333 389.461333 517.461333 z M 389.461333 413.35466699999995 C 372.053333 413.35466699999995 358.058666 427.34933399999994 358.058667 444.75733299999996 C 358.058668 462.165332 372.053334 476.15999999999997 389.461333 476.15999999999997 C 406.86933200000004 476.15999999999997 420.86400000000003 462.165333 420.86400000000003 444.75733299999996 C 420.86400000000003 427.34933299999994 406.86933300000004 413.35466599999995 389.461333 413.35466699999995 z M 483.328 236.544 C 443.392 236.544 410.62399999999997 204.117333 410.62399999999997 163.84000000000003 C 410.62399999999997 123.56266700000006 443.050667 91.13600000000004 483.328 91.13600000000004 C 523.264 91.13600000000004 556.0319999999999 123.56266700000003 556.0319999999999 163.84000000000003 C 556.0319999999999 204.11733300000003 523.605333 236.54400000000004 483.3279999999999 236.54400000000004 z M 483.328 132.778667 C 465.91999999999996 132.778667 451.92533299999997 146.773334 451.92533299999997 164.18133300000002 C 451.92533299999997 181.58933200000004 465.91999999999996 195.58400000000003 483.328 195.58400000000003 C 500.736 195.58400000000003 514.7306669999999 181.58933300000004 514.7306669999999 164.18133300000002 C 514.7306669999999 146.773333 500.73599999999993 132.77866600000002 483.3279999999999 132.778667 z M 577.536 517.461333 C 537.5999999999999 517.461333 504.83199999999994 485.03466599999996 504.83199999999994 444.75733299999996 C 504.83199999999994 404.821333 537.258667 372.05333299999995 577.536 372.05333299999995 C 617.813333 372.05333299999995 650.2399999999999 404.47999999999996 650.2399999999999 444.75733299999996 C 649.8986669999999 484.69333299999994 617.4719999999999 517.461333 577.536 517.461333 z M 577.536 413.35466699999995 C 560.1279999999999 413.35466699999995 546.133333 427.34933399999994 546.133333 444.75733299999996 C 546.133333 462.165332 560.128 476.15999999999997 577.536 476.15999999999997 C 594.9439999999998 476.15999999999997 608.9386669999999 462.165333 608.9386669999999 444.75733299999996 C 608.9386669999999 427.34933299999994 594.6026669999999 413.35466599999995 577.536 413.35466699999995 z M 572.074667 701.44 L 394.922667 701.44 C 357.717334 701.44 327.68 671.0613330000001 327.68 634.1973330000001 L 327.68 630.442667 C 327.68 593.237334 358.058667 563.2 394.922667 563.2 L 572.074667 563.2 C 609.28 563.2 639.317334 593.578667 639.317333 630.442667 L 639.317333 634.1973330000001 C 639.317333 671.0613330000001 609.28 701.44 572.074667 701.44 z M 394.922667 604.16 C 380.586667 604.16 368.64 615.7653329999999 368.64 630.4426669999999 L 368.64 634.197333 C 368.64 648.533333 380.24533299999996 660.4799999999999 394.922667 660.4799999999999 L 572.074667 660.4799999999999 C 586.410667 660.4799999999999 598.3573339999999 648.8746669999999 598.3573329999999 634.197333 L 598.3573329999999 630.4426669999999 C 598.3573329999999 616.1066669999999 586.752 604.16 572.074667 604.16 L 394.922667 604.16 z" stroke-linecap="round" />
</g>
		<g transform="matrix(0.1953125 0 0 0.1953125 -6.0333333984 -15.2666666016)" id="ko1ji1LLQA9C00wStJGIQ"  >
<path style="stroke: none; stroke-width: 1; stroke-dasharray: none; stroke-linecap: butt; stroke-dashoffset: 0; stroke-linejoin: miter; stroke-miterlimit: 4; fill: rgb(0,0,0); fill-rule: nonzero; opacity: 1;"  transform=" translate(-481.109333, -433.834667)" d="M 420.864 592.896 L 462.165333 592.896 L 462.165333 668.330667 L 420.864 668.330667 z M 461.482667 199.338667 L 502.784 199.338667 L 502.784 274.773333 L 461.482667 274.773333 z M 508.928 591.530667 L 550.229333 591.530667 L 550.229333 666.965333 L 508.928 666.965333 z M 730.453333 640.341333 L 709.973333 640.341333 L 709.973333 443.733333 L 730.453333 443.733333 C 784.7253330000001 443.733333 828.757333 487.765333 828.757333 542.037333 C 828.757333 596.3093329999999 784.725333 640.341333 730.453333 640.341333 z M 751.274667 488.78933299999994 L 751.274667 595.626667 C 772.778667 587.434667 787.797334 566.613334 787.797333 542.378667 C 787.797332 518.1439999999999 772.7786659999999 496.98133399999995 751.274667 488.78933299999994 z M 252.245333 640.341333 L 231.765333 640.341333 C 177.493333 640.341333 133.461333 596.3093329999999 133.461333 542.037333 C 133.461333 487.76533300000006 177.493333 443.733333 231.765333 443.733333 L 252.245333 443.733333 L 252.245333 640.3413330000001 z M 211.28533299999998 488.78933299999994 C 189.781333 496.98133299999995 174.76266599999997 517.8026659999999 174.76266699999996 542.037333 C 174.76266799999996 566.272 190.12266699999998 587.093333 211.28533299999998 595.285333 L 211.28533299999998 488.78933300000006 z" stroke-linecap="round" />
</g>
</g>
</g>
<g transform="matrix(-3.0662727161 0 0 -3.0662727161 310.9471054672 320)" id="3s4nBpAZ1V604_EQaN-n5"  >
<g style=""   >
		<g transform="matrix(0.1953125 0 0 0.1953125 0.185546875 -0.15625)" id="4BtNPEdMi4pEjlFTe728e"  >
<path style="stroke: none; stroke-width: 1; stroke-dasharray: none; stroke-linecap: butt; stroke-dashoffset: 0; stroke-linejoin: miter; stroke-miterlimit: 4; fill: rgb(246,132,117); fill-rule: nonzero; opacity: 1;"  transform=" translate(-512.95, -511.2)" d="M 910.8 305.6 C 905.4 295.1 894.5 287.8 881.9 287.8 C 864.1 287.8 849.6999999999999 302.2 849.6999999999999 319.90000000000003 C 849.6999999999999 325.90000000000003 851.4 331.6 854.3 336.40000000000003 L 854.1999999999999 336.50000000000006 C 881.0999999999999 388.90000000000003 896.3 448.30000000000007 896.3 511.20000000000005 C 896.3 605.6 862.1999999999999 692 805.5999999999999 758.8000000000001 C 804.8 757.7 803.8 756.6 802.8 755.6 L 271.2 224 C 269.3 222.1 267.2 220.5 265 219.2 C 331.8 162.39999999999998 418.4 128.1 513 128.1 C 575.5 128.1 634.5 143.1 686.6 169.6 L 686.8000000000001 169.2 C 691.4000000000001 171.79999999999998 696.8000000000001 173.29999999999998 702.5000000000001 173.29999999999998 C 720.3000000000001 173.29999999999998 734.7000000000002 158.89999999999998 734.7000000000002 141.2 C 734.7000000000002 128.1 726.8000000000002 116.79999999999998 715.4000000000002 111.79999999999998 C 654.6 81 585.9 63.5 513 63.5 C 265.7 63.5 65.2 264 65.2 511.2 C 65.2 758.4 265.7 958.9 513 958.9 C 760.3 958.9 960.7 758.5 960.7 511.2 C 960.7 437.1 942.7 367.2 910.8000000000001 305.6 z M 129.79999999999995 511.20000000000005 C 129.79999999999995 416.40000000000003 164.19999999999996 329.80000000000007 221.09999999999997 262.90000000000003 C 222.39999999999998 265.1 223.99999999999997 267.3 225.99999999999997 269.20000000000005 L 757.5 800.8000000000001 C 758.5 801.8000000000001 759.6 802.8000000000001 760.7 803.6 C 693.9000000000001 860.2 607.5 894.4 513.1 894.4 C 301.5 894.4 129.8 722.9 129.8 511.2 z" stroke-linecap="round" />
</g>
		<g transform="matrix(0.1953125 0 0 0.1953125 57.20703125 -57.08984375)" id="FzL6E3Sa2gwQECtDidy1B"  >
<path style="stroke: none; stroke-width: 1; stroke-dasharray: none; stroke-linecap: butt; stroke-dashoffset: 0; stroke-linejoin: miter; stroke-miterlimit: 4; fill: rgb(246,132,117); fill-rule: nonzero; opacity: 1;"  transform=" translate(-804.9, -219.7)" d="M 772.7 219.7 C 772.6999996603464 231.16822566178456 778.8372849144416 241.76530332263553 788.7999997255556 247.49941625127286 C 798.7627145366696 253.2335291799102 811.0372854633305 253.2335291799102 821.0000002744445 247.49941625127286 C 830.9627150855584 241.76530332263553 837.1000003396537 231.16822566178456 837.1 219.7 C 837.1000003396537 208.23177433821542 830.9627150855584 197.63469667736445 821.0000002744445 191.90058374872712 C 811.0372854633305 186.16647082008978 798.7627145366696 186.16647082008978 788.7999997255556 191.90058374872712 C 778.8372849144416 197.63469667736445 772.6999996603464 208.23177433821542 772.7 219.69999999999996 Z" stroke-linecap="round" />
</g>
</g>
</g>
<g transform="matrix(0.2783027762 0 0 0.2995583014 239.1201687385 472.369813864)" id="OlIQtAMD_o4YvpJpnVujl"  >
<path style="stroke: none; stroke-width: 1; stroke-dasharray: none; stroke-linecap: butt; stroke-dashoffset: 0; stroke-linejoin: miter; stroke-miterlimit: 4; fill: rgb(246,132,117); fill-rule: nonzero; opacity: 1;"  transform=" translate(0, 0)" d="M -328.09337 -151.22504 C -335.79337 -125.08504 -344.92337 -102.09504000000001 -349.13337 -78.28504000000001 C -358.63337 -24.53504000000001 -326.66337 17.634959999999992 -271.27337 17.384959999999992 C -230.23337 17.204959999999993 -188.41337 9.004959999999992 -148.33337 -1.0150400000000062 C 45.38663 -49.42504 443.82662999999997 -153.06504 448.02663 -150.84504 C 406.54663 -133.52504000000002 359.69663 -113.83504000000002 318.15663 -96.63504 C 144.20663000000002 -24.605040000000002 -29.703370000000007 47.52495999999999 -203.81337000000002 119.18495999999999 C -246.97337000000002 136.95496 -291.21337000000005 151.26495999999997 -338.98337000000004 151.22495999999998 C -423.42337000000003 151.18496 -466.04337000000004 93.77495999999998 -440.81337 14.084959999999995 C -422.08337 -45.055040000000005 -383.50337 -91.59504000000001 -342.37337 -136.57504 C -338.24337 -141.09504 -333.82337 -145.36504 -328.09337000000005 -151.22504 z" stroke-linecap="round" />
</g>
</svg>