<?xml version="1.0" encoding="UTF-8" standalone="no" ?>
<!DOCTYPE svg PUBLIC "-//W3C//DTD SVG 1.1//EN" "http://www.w3.org/Graphics/SVG/1.1/DTD/svg11.dtd">
<svg xmlns="http://www.w3.org/2000/svg" xmlns:xlink="http://www.w3.org/1999/xlink" version="1.1" width="800" height="800" viewBox="0 0 640 640" xml:space="preserve">
<desc>Created with Fabric.js 5.3.0</desc>
<defs>
</defs>
<g transform="matrix(1.3420948808 0 0 1.3420948808 295.5555124228 380.5996318618)" id="JWxo4zgLBfB8dCUjYvQT7"  >
<g style=""   >
		<g transform="matrix(5.6168224299 0 0 5.6168224299 20.5459152989 -34.8768661629)" id="tdCeP-nBkGVnTERpT_6RV"  >
<path style="stroke: none; stroke-width: 1; stroke-dasharray: none; stroke-linecap: butt; stroke-dashoffset: 0; stroke-linejoin: miter; stroke-miterlimit: 4; fill: rgb(108,197,239); fill-rule: nonzero; opacity: 1;"  transform=" translate(-32.1088872179, -32.0006656159)" d="M 32 9.32 C 25.186451290620433 9.313211559920974 18.73250034704211 12.376726122780578 14.429999999999996 17.660000000000004 L 16.9 21.34 C 18.69 21.34 13 23 13 24.76 C 13 26.520000000000003 13.13 28.39 13.13 30.17 C 13.13 31.950000000000003 13 32 11.19 32 L 9.54 35.17 C 11.23310507671305 47.16453833569962 22.05309335920922 55.71137481266714 34.11368660927364 54.5810451510817 C 46.174279859338064 53.45071548949627 55.21776080578561 43.04225678666148 54.652679890296916 30.941999010634156 C 54.08759897480822 18.84174123460683 44.11344512165162 9.32140431247333 31.99999999999999 9.32 Z" stroke-linecap="round" />
</g>
		<g transform="matrix(5.6168224299 0 0 5.6168224299 -48.7604094331 -66.2646533883)" id="wJz6flkd9MNYe0YAfGBml"  >
<path style="stroke: none; stroke-width: 1; stroke-dasharray: none; stroke-linecap: butt; stroke-dashoffset: 0; stroke-linejoin: miter; stroke-miterlimit: 4; fill: rgb(154,243,154); fill-rule: nonzero; opacity: 1;"  transform=" translate(-19.769824412, -26.4124905191)" d="M 14.43 17.66 C 11.122503759976897 21.706874026934784 9.317046410371429 26.77346079666912 9.320000000000004 32.00000000000001 C 9.323224119753462 33.06036644548459 9.396718498156197 34.119353625196766 9.54 35.17000000000001 L 22.81 35.17 C 24.52142920714492 35.07466281030352 25.860347557767774 33.65908258576065 25.860347557767774 31.945 C 25.860347557767774 30.230917414239354 24.52142920714492 28.815337189696482 22.81 28.720000000000002 L 18.81 28.720000000000002 C 17.950266928224533 28.776658302450198 17.130453403600207 28.35013848944736 16.68339170136601 27.613601353698947 C 16.23632999913181 26.877064217950533 16.23632999913181 25.952935782049472 16.68339170136601 25.21639864630106 C 17.130453403600207 24.479861510552645 17.950266928224533 24.053341697549804 18.81 24.110000000000003 L 26.81 24.110000000000003 C 28.005034164262522 24.176570792607976 29.13891078330868 23.576863092264606 29.756477445550704 22.551607152574263 C 30.37404410779273 21.52635121288392 30.37404410779273 20.24364878711609 29.756477445550708 19.218392847425743 C 29.13891078330868 18.1931369077354 28.005034164262526 17.59342920739203 26.81 17.660000000000004 Z" stroke-linecap="round" />
</g>
		<g transform="matrix(5.6168224299 0 0 5.6168224299 68.4375289834 -97.3115861173)" id="EGTsY0Grp_KtMA6bqm4_I"  >
<path style="stroke: none; stroke-width: 1; stroke-dasharray: none; stroke-linecap: butt; stroke-dashoffset: 0; stroke-linejoin: miter; stroke-miterlimit: 4; fill: rgb(154,243,154); fill-rule: nonzero; opacity: 1;"  transform=" translate(-40.6353475578, -20.885)" d="M 39 17.66 L 42.63 17.66 C 44.34142920714493 17.75533718969648 45.680347557767774 19.170917414239348 45.680347557767774 20.884999999999998 C 45.680347557767774 22.599082585760648 44.34142920714493 24.01466281030352 42.63 24.11 L 39 24.11 C 37.80496583573748 24.176570792607972 36.671089216691314 23.576863092264603 36.053522554449295 22.55160715257426 C 35.43595589220727 21.526351212883917 35.43595589220727 20.243648787116086 36.053522554449295 19.21839284742574 C 36.671089216691314 18.193136907735397 37.80496583573748 17.593429207392028 39 17.66 Z" stroke-linecap="round" />
</g>
		<g transform="matrix(5.6168224299 0 0 5.6168224299 49.0013712056 14.0279269422)" id="9gdSWoIFnhwbu5G4RZ8Zs"  >
<path style="stroke: none; stroke-width: 1; stroke-dasharray: none; stroke-linecap: butt; stroke-dashoffset: 0; stroke-linejoin: miter; stroke-miterlimit: 4; fill: rgb(154,243,154); fill-rule: nonzero; opacity: 1;"  transform=" translate(-37.175, -40.7075089807)" d="M 32.26 35 C 31.546463249238297 34.94826867053147 30.8638429362109 35.29962336819967 30.491297102279347 35.91037735038594 C 30.118751268347793 36.52113133257222 30.118751268347793 37.288868667427785 30.491297102279347 37.89962264961406 C 30.863842936210904 38.510376631800334 31.546463249238297 38.86173132946853 32.26 38.81 L 32.26 38.81 C 33.30934099594717 38.810000040632254 34.159999926428796 39.66065900405283 34.159999926428796 40.71 C 34.159999926428796 41.75934099594717 33.30934099594717 42.60999995936775 32.26 42.61 L 28.79 42.61 C 27.791344817863834 42.68240238179377 27.018112273169315 43.5137236756535 27.018112273169315 44.515 C 27.018112273169315 45.5162763243465 27.79134481786383 46.34759761820622 28.79 46.42 L 42.09 46.42 C 42.80353675076171 46.47173132946853 43.4861570637891 46.12037663180033 43.858702897720654 45.50962264961406 C 44.23124873165221 44.898868667427784 44.23124873165221 44.13113133257222 43.858702897720654 43.52037735038594 C 43.4861570637891 42.90962336819967 42.80353675076171 42.55826867053147 42.09 42.61 C 41.091344817863835 42.53759761820622 40.31811227316932 41.7062763243465 40.31811227316932 40.705 C 40.31811227316932 39.7037236756535 41.091344817863835 38.872402381793776 42.09 38.8 L 45.56 38.8 C 46.55865518213617 38.727597618206225 47.331887726830686 37.896276324346495 47.331887726830686 36.894999999999996 C 47.331887726830686 35.8937236756535 46.55865518213617 35.062402381793774 45.56 34.989999999999995 Z" stroke-linecap="round" />
</g>
		<g transform="matrix(5.6168224299 0 0 5.6168224299 -44.2098093919 35.4421656918)" id="TK5CzjMomOr89EJQd4nU-"  >
<path style="stroke: none; stroke-width: 1; stroke-dasharray: none; stroke-linecap: butt; stroke-dashoffset: 0; stroke-linejoin: miter; stroke-miterlimit: 4; fill: rgb(154,243,154); fill-rule: nonzero; opacity: 1;"  transform=" translate(-20.5799977971, -44.5200273604)" d="M 22.49 44.51 C 22.494049374876987 45.28342001484951 22.031269004456895 45.98293854125441 21.31788104560573 46.281723642912596 C 20.60449308675457 46.58050874457078 19.781333251519506 46.41957482743202 19.233001679397447 45.8741141012373 C 18.684670107275387 45.328653375042585 18.519417388200754 44.50634967271097 18.81445358040021 43.79140312778669 C 19.109489772599666 43.076456582862406 19.806569384692878 42.610010600530245 20.58 42.61 C 21.63097093749088 42.60998559554148 22.484497534456878 43.45904346686892 22.49 44.51 Z" stroke-linecap="round" />
</g>
		<g transform="matrix(5.6168224299 0 0 5.6168224299 100.9288845383 -49.4281648707)" id="Me75zxC5dAd6uE_LPfwpA"  >
<path style="stroke: none; stroke-width: 1; stroke-dasharray: none; stroke-linecap: butt; stroke-dashoffset: 0; stroke-linejoin: miter; stroke-miterlimit: 4; fill: rgb(154,243,154); fill-rule: nonzero; opacity: 1;"  transform=" translate(-46.419998214, -29.410001786)" d="M 48.33 29.4 C 48.334043570753465 30.174327990129196 47.87017568059594 30.874475993656297 47.1555562898935 31.17266940940188 C 46.440936899191044 31.470862825147464 45.616992128106936 31.308087948199773 45.06945208995358 30.760547910046416 C 44.52191205180022 30.21300787189306 44.359137174852535 29.38906310080895 44.65733059059812 28.6744437101065 C 44.9555240063437 27.959824319404053 45.655672009870806 27.49595642924653 46.43 27.5 C 47.479341024678504 27.5 48.33 28.350658975321494 48.33 29.4 Z" stroke-linecap="round" />
</g>
		<g transform="matrix(5.6168224299 0 0 5.6168224299 19.8500627945 -34.880604809)" id="_i6olaeVe7VYYEMQglmC2"  >
<path style="stroke: none; stroke-width: 1; stroke-dasharray: none; stroke-linecap: butt; stroke-dashoffset: 0; stroke-linejoin: miter; stroke-miterlimit: 4; fill: rgb(230,229,225); fill-rule: evenodd; opacity: 1;"  transform=" translate(-31.985, -32)" d="M 31.57 5 L 32.43 5 C 32.9822847498308 5 33.43 4.552284749830793 33.43 4 C 33.43 3.4477152501692068 32.9822847498308 3 32.43 3 L 31.53 3 C 30.977715250169208 3 30.53 3.4477152501692068 30.53 4 C 30.53 4.552284749830793 30.977715250169208 5 31.53 5 Z M 39.94 6.1899999999999995 L 40.75 6.449999999999999 C 41.274670512339256 6.626731119945854 41.84326888005415 6.3446705123392535 42.02 5.819999999999999 C 42.19673111994585 5.295329487660746 41.91467051233926 4.726731119945853 41.39 4.549999999999999 L 40.53 4.269999999999999 C 39.99980664016244 4.107075998799914 39.43792400120009 4.404806640162436 39.275 4.934999999999997 C 39.11207599879992 5.465193359837558 39.40980664016244 6.027075998799914 39.94 6.189999999999999 Z M 23.249999999999996 6.449999999999999 L 24.059999999999995 6.1899999999999995 C 24.590193359837556 6.027075998799916 24.88792400120008 5.465193359837562 24.724999999999994 4.935 C 24.562075998799912 4.4048066401624375 24.000193359837557 4.107075998799916 23.469999999999995 4.27 L 22.609999999999996 4.55 C 22.085329487660744 4.726731119945854 21.80326888005414 5.295329487660747 21.979999999999997 5.82 C 22.15673111994585 6.344670512339254 22.725329487660744 6.626731119945854 23.249999999999996 6.449999999999999 Z M 47.52 9.91 C 47.760000000000005 10.07 47.99 10.24 48.21 10.41 C 48.651827799864634 10.741370849898477 49.27862915010152 10.651827799864636 49.61 10.21 C 49.941370849898476 9.768172200135368 49.85182779986464 9.141370849898477 49.410000000000004 8.81 C 49.17 8.620000000000001 48.92 8.450000000000001 48.68000000000001 8.27 C 48.227126505138756 7.949674845098141 47.60032515490187 8.05712650513875 47.28000000000001 8.510000000000002 C 46.95967484509815 8.962873494861253 47.06712650513876 9.589674845098141 47.52000000000001 9.91 Z M 15.790000000000003 10.41 L 16.470000000000002 9.91 C 16.922873494861253 9.592436268847294 17.03256373115271 8.96787349486125 16.715000000000003 8.515 C 16.397436268847297 8.06212650513875 15.772873494861253 7.952436268847293 15.320000000000002 8.27 C 15.080000000000002 8.45 14.830000000000002 8.62 14.590000000000002 8.809999999999999 C 14.148172217429796 9.141370855472996 14.058629177886784 9.768172192409958 14.390000021490762 10.209999983881929 C 14.72137086509474 10.6518277753539 15.348172199626266 10.741370831734958 15.790000000000001 10.409999999999998 Z M 9.91 16.47 C 10.07 16.24 10.24 16.009999999999998 10.41 15.79 C 10.741370832447533 15.348172199646237 10.651827776315484 14.72137086449857 10.209999984514258 14.390000020647655 C 9.768172192713035 14.058629176796735 9.141370855254303 14.148172216751314 8.81 14.59 L 8.27 15.32 C 7.952436268847294 15.772873494861251 8.06212650513875 16.397436268847294 8.515 16.715 C 8.967873494861252 17.032563731152706 9.592436268847294 16.92287349486125 9.91 16.47 Z M 53.59 15.79 C 53.760000000000005 16.009999999999998 53.93000000000001 16.24 54.09 16.47 C 54.40756373115271 16.92287349486125 55.032126505138756 17.032563731152706 55.48500000000001 16.715 C 55.93787349486126 16.397436268847294 56.04756373115271 15.77287349486125 55.730000000000004 15.319999999999999 L 55.190000000000005 14.589999999999998 C 54.85862915010153 14.148172200135363 54.23182779986464 14.05862915010152 53.790000000000006 14.389999999999997 C 53.348172200135366 14.721370849898472 53.25862915010153 15.348172200135362 53.59 15.789999999999997 Z M 57.59 23.25 C 57.68000000000001 23.52 57.77 23.79 57.85 24.06 C 58.025294688311725 24.571056486177852 58.574826770419186 24.850464464719735 59.091043392241524 24.691004879968332 C 59.60726001406387 24.531545295216926 59.9034729585904 23.99088623514936 59.76 23.47 C 59.68 23.18 59.58 22.89 59.48 22.599999999999998 C 59.28646196795527 22.098031101547267 58.73047073003039 21.83914262157524 58.22172973365118 22.01410645630883 C 57.71298873727197 22.189070291042423 57.43384664352619 22.735173937991128 57.589999999999996 23.249999999999996 Z M 6.230000000000004 24.06 C 6.310000000000004 23.79 6.400000000000004 23.52 6.490000000000004 23.25 C 6.646153356473804 22.735173937991135 6.3670112627280195 22.189070291042434 5.858270266348813 22.014106456308845 C 5.349529269969607 21.839142621575256 4.793538032044739 22.098031101547278 4.600000000000004 22.6 C 4.500000000000004 22.89 4.400000000000004 23.18 4.310000000000004 23.470000000000002 C 4.14707599879992 24.000193359837564 4.444806640162442 24.56207599879992 4.975000000000004 24.725 C 5.505193359837566 24.887924001200087 6.06707599879992 24.590193359837563 6.230000000000004 24.060000000000002 Z M 60 30.56 L 59.89 30.56 C 59.3691780651553 30.601797028246253 58.968325543100605 31.03750629134918 58.97 31.56 L 58.97 32.4 C 58.97 32.952284749830795 59.4177152501692 33.4 59.97 33.4 C 60.522284749830796 33.4 60.97 32.952284749830795 60.97 32.4 L 60.97 31.479999999999997 C 60.92929444765754 30.970505193506487 60.5109343732591 30.57371007139662 60 30.56 Z M 5 32.43 L 5 31.57 C 5 31.017715250169207 4.552284749830793 30.57 4 30.57 C 3.4477152501692068 30.57 3 31.017715250169207 3 31.57 L 3 32.47 C 3 33.022284749830796 3.4477152501692068 33.47 4 33.47 C 4.552284749830793 33.47 5 33.022284749830796 5 32.47 Z M 6.45 40.75 C 6.36 40.48 6.2700000000000005 40.21 6.19 39.94 C 6.027075998799915 39.40980664016244 5.46519335983756 39.11207599879992 4.934999999999999 39.275 C 4.404806640162437 39.43792400120009 4.107075998799916 39.99980664016244 4.2700000000000005 40.53 C 4.36 40.82 4.460000000000001 41.11 4.5600000000000005 41.4 C 4.753538032044736 41.90196889845272 5.3095292699696035 42.160857378424744 5.81827026634881 41.985893543691155 C 6.327011262728016 41.810929708957566 6.606153356473801 41.264826062008865 6.45 40.75 Z M 57.81 39.94 C 57.730000000000004 40.21 57.64 40.48 57.550000000000004 40.75 C 57.4183213789613 41.09152756258932 57.483759253559185 41.47770829441261 57.72059952026137 41.756790761284485 C 57.95743978696356 42.03587322815636 58.32783285570506 42.16325708777645 58.68623112464548 42.08888628660177 C 59.04462939358591 42.01451548542709 59.333757012852736 41.750275267366796 59.440000000000005 41.4 C 59.540000000000006 41.11 59.64000000000001 40.82 59.720000000000006 40.53 C 59.86347295859042 40.00911376485063 59.56726001406389 39.468454704783056 59.05104339224154 39.30899512003165 C 58.534826770419194 39.14953553528024 57.985294688311726 39.428943513822134 57.81000000000001 39.94 Z M 54.09 47.53 C 53.93000000000001 47.76 53.760000000000005 47.980000000000004 53.59 48.21 C 53.25862915010153 48.651827799864634 53.348172200135366 49.27862915010152 53.790000000000006 49.61 C 54.23182779986464 49.94137084989848 54.85862915010153 49.85182779986464 55.190000000000005 49.410000000000004 L 55.730000000000004 48.68000000000001 C 56.04756373115271 48.227126505138756 55.93787349486125 47.60256373115271 55.48500000000001 47.28500000000001 C 55.032126505138756 46.9674362688473 54.407563731152706 47.07712650513876 54.09 47.53000000000001 Z M 10.410000000000004 48.21 C 10.240000000000004 47.980000000000004 10.070000000000004 47.76 9.910000000000004 47.53 C 9.592436268847297 47.07712650513875 8.967873494861255 46.967436268847294 8.515000000000004 47.285000000000004 C 8.062126505138753 47.602563731152706 7.952436268847297 48.22712650513875 8.270000000000003 48.68 L 8.810000000000002 49.41 C 9.141370849898479 49.85182779986463 9.76817220013537 49.94137084989847 10.210000000000004 49.60999999999999 C 10.651827799864638 49.278629150101516 10.741370849898479 48.65182779986463 10.410000000000002 48.209999999999994 Z M 48.21 53.59 C 47.99 53.760000000000005 47.76 53.93000000000001 47.52 54.09 C 47.071185241516375 54.40838257001782 46.96393304816723 55.02955152316497 47.28 55.480000000000004 C 47.43152837015213 55.70003855510671 47.66480509576103 55.85029344466103 47.92781093342581 55.89725877281545 C 48.190816771090596 55.944224100969876 48.46168006381293 55.88399421468899 48.68 55.730000000000004 L 49.41 55.190000000000005 C 49.85182779986463 54.85862915010153 49.941370849898476 54.23182779986464 49.61 53.790000000000006 C 49.278629150101516 53.348172200135366 48.65182779986463 53.25862915010153 48.209999999999994 53.59 Z M 16.470000000000002 54.09 L 15.790000000000003 53.59 C 15.348172200135368 53.25862915010153 14.721370849898477 53.34817220013537 14.390000000000002 53.790000000000006 C 14.058629150101527 54.23182779986464 14.148172200135368 54.85862915010153 14.590000000000003 55.190000000000005 C 14.830000000000004 55.38 15.080000000000004 55.550000000000004 15.320000000000004 55.730000000000004 C 15.53831993618708 55.88399421468899 15.809183228909408 55.944224100969876 16.07218906657419 55.89725877281545 C 16.33519490423897 55.85029344466103 16.568471629847874 55.70003855510671 16.720000000000002 55.480000000000004 C 17.03401516552059 55.0269551009572 16.922195406744226 54.40523724216064 16.47 54.09 Z M 40.75 57.550000000000004 L 39.94 57.81 C 39.412749225046234 57.973142422131076 39.11735853972317 58.53259447766718 39.28 59.06 C 39.443142422131075 59.587250774953766 40.00259447766718 59.88264146027683 40.53 59.72 C 40.82 59.64 41.11 59.54 41.4 59.44 C 41.750275267366796 59.33375701285273 42.01451548542709 59.0446293935859 42.08888628660177 58.686231124645474 C 42.16325708777645 58.327832855705054 42.03587322815636 57.957439786963555 41.756790761284485 57.720599520261366 C 41.47770829441261 57.48375925355917 41.09152756258932 57.418321378961295 40.75 57.55 Z M 24.06 57.81 L 23.25 57.550000000000004 C 22.73517393799113 57.393846643526196 22.189070291042427 57.67298873727198 22.014106456308834 58.18172973365119 C 21.839142621575245 58.690470730030405 22.09803110154727 59.24646196795528 22.6 59.440000000000005 C 22.89 59.540000000000006 23.18 59.64000000000001 23.470000000000002 59.720000000000006 C 23.997405522332826 59.88264146027684 24.556857577868932 59.58725077495377 24.720000000000002 59.06000000000001 C 24.882641460276837 58.53259447766718 24.58725077495377 57.97314242213107 24.06 57.81 Z M 32.43 59 L 31.57 59 C 31.017715250169207 59 30.57 59.4477152501692 30.57 60 C 30.57 60.5522847498308 31.017715250169207 61 31.57 61 L 32.47 61 C 33.022284749830796 61 33.47 60.5522847498308 33.47 60 C 33.47 59.4477152501692 33.022284749830796 59 32.47 59 Z" stroke-linecap="round" />
</g>
		<g transform="matrix(5.6168224299 0 0 5.6168224299 19.9343151309 -34.880604809)" id="Cfu45nlhFU3Iul5iCoqEi"  >
<path style="stroke: none; stroke-width: 1; stroke-dasharray: none; stroke-linecap: butt; stroke-dashoffset: 0; stroke-linejoin: miter; stroke-miterlimit: 4; fill: rgb(230,229,225); fill-rule: nonzero; opacity: 1;"  transform=" translate(-32, -32)" d="M 32 55.68 C 18.92189712400681 55.68 8.32 45.07810287599319 8.32 32 C 8.32 18.92189712400681 18.92189712400681 8.32 32 8.32 C 45.07810287599319 8.32 55.67999999999999 18.921897124006804 55.68 31.999999999999993 C 55.6689721305499 45.0735322583231 45.0735322583231 55.6689721305499 32 55.68 Z M 32 10.32 C 20.026466623668398 10.32 10.32 20.026466623668398 10.32 32 C 10.32 43.9735333763316 20.026466623668398 53.68 32 53.68 C 43.9735333763316 53.68 53.68 43.9735333763316 53.68 32 C 53.66347521425707 20.033318097585905 43.96668190241409 10.336524785742924 31.999999999999993 10.32 Z" stroke-linecap="round" />
</g>
		<g transform="matrix(0.4215389569 0 0 0.4215389569 26.8163364419 -29.5638862212)" id="suXgO6WVe79thI8Nnx4IG"  >
<path style="stroke: none; stroke-width: 1; stroke-dasharray: none; stroke-linecap: butt; stroke-dashoffset: 0; stroke-linejoin: miter; stroke-miterlimit: 4; fill: rgb(63,83,93); fill-rule: nonzero; opacity: 1;"  transform=" translate(-256.0008203104, -255.9998630775)" d="M 255.943 235.568 L 173.692 257.16200000000003 C 144.64000000000001 264.36800000000005 119.22900000000001 273.97400000000005 94.742 265.564 C 61.456 251.15300000000002 62.051 213.64900000000003 86.867 173.75400000000002 C 42.996 210.063 -35.956 326.154 70.822 337.878 C 84.425 339.67199999999997 108.64 334.89 134.946 323.791 L 255.94400000000002 273.995 L 494.61 176.14600000000002 L 285.598 227.76800000000003 L 255.943 235.568 z M 255.943 235.568" stroke-linecap="round" />
</g>
		<g transform="matrix(-2.4077903536 0.1683691033 -0.1683691033 -2.4077903536 130.7909641008 -179.57454192)" id="lIAOyiFq6K5Tmnv5SzeMx"  >
<path style="stroke: none; stroke-width: 1; stroke-dasharray: none; stroke-linecap: butt; stroke-dashoffset: 0; stroke-linejoin: miter; stroke-miterlimit: 4; fill: rgb(254,134,87); fill-rule: nonzero; opacity: 1;"  transform=" translate(-19.3094236527, -44.6905763473)" d="M 21.06 40.17 L 15.52 43.480000000000004 C 15.121967328685434 43.721667781876214 14.856668807963631 44.13244876789406 14.800111921702246 44.59465504527159 C 14.74355503544086 45.05686132264911 14.901980594477777 45.519490402814654 15.23 45.85 L 18.15 48.77 C 18.48050959718535 49.09801940552223 18.943138677350888 49.256444964559144 19.405344954728417 49.19988807829776 C 19.867551232105946 49.14333119203638 20.278332218123793 48.87803267131457 20.52 48.480000000000004 L 23.83 42.940000000000005 Z" stroke-linecap="round" />
</g>
		<g transform="matrix(-2.4077903536 0.1683691033 -0.1683691033 -2.4077903536 98.5779044092 -142.5187454439)" id="q3RNNc6m1ucWM11IRtb28"  >
<path style="stroke: none; stroke-width: 1; stroke-dasharray: none; stroke-linecap: butt; stroke-dashoffset: 0; stroke-linejoin: miter; stroke-miterlimit: 4; fill: rgb(118,118,137); fill-rule: nonzero; opacity: 1;"  transform=" translate(-33.6939389205, -30.3064799548)" d="M 44.93 19.07 C 43.6415803796879 17.768601963236954 41.88630062198862 17.036383221419534 40.055 17.036383221419534 C 38.22369937801139 17.036383221419534 36.4684196203121 17.768601963236954 35.18 19.07 L 22.25 32 C 19.741190327937893 34.721712132395915 19.826968064211705 38.93817894792636 22.444394558142672 41.555605441857324 C 25.06182105207364 44.173031935788295 29.278287867604085 44.258809672062114 32 41.75 L 44.93 28.83 C 46.23199566029797 27.539864914317292 46.96445452921803 25.782932415214553 46.96445452921803 23.95 C 46.96445452921803 22.117067584785445 46.23199566029797 20.360135085682707 44.93 19.07 Z" stroke-linecap="round" />
</g>
		<g transform="matrix(-2.4077903536 0.1683691033 -0.1683691033 -2.4077903536 94.0970441277 -137.3760743216)" id="7HnRoMraduGwTyK4A83Hd"  >
<path style="stroke: none; stroke-width: 1; stroke-dasharray: none; stroke-linecap: butt; stroke-dashoffset: 0; stroke-linejoin: miter; stroke-miterlimit: 4; fill: rgb(254,134,87); fill-rule: nonzero; opacity: 1;"  transform=" translate(-35.6944940377, -28.3105256792)" d="M 40.68 23.32 C 39.66886469800174 22.310416062801856 38.031135301998255 22.310416062801856 37.019999999999996 23.32 L 30.629999999999995 29.71 C 29.685757442564753 30.73132223498079 29.716819160868436 32.3161052864707 30.700356937198865 33.29964306280113 C 31.68389471352929 34.28318083913156 33.2686777650192 34.31424255743525 34.28999999999999 33.370000000000005 L 40.68 27 C 41.17099789553543 26.513599175436237 41.44722738664418 25.85113290730259 41.44722738664418 25.16 C 41.44722738664418 24.468867092697412 41.17099789553543 23.806400824563763 40.68 23.32 Z" stroke-linecap="round" />
</g>
		<g transform="matrix(-2.4077903536 0.1683691033 -0.1683691033 -2.4077903536 83.0556290859 -156.4621648057)" id="54FIPZ4mX_9lvlCOE67bd"  >
<path style="stroke: none; stroke-width: 1; stroke-dasharray: none; stroke-linecap: butt; stroke-dashoffset: 0; stroke-linejoin: miter; stroke-miterlimit: 4; fill: rgb(254,134,87); fill-rule: nonzero; opacity: 1;"  transform=" translate(-5.03, -1.745)" d="M 0 3.49 L 0 0 L 10.06 0 L 10.06 3.49 z" stroke-linecap="round" />
</g>
		<g transform="matrix(-2.4077903536 0.1683691033 -0.1683691033 -2.4077903536 65.2688337009 -171.9163955576)" id="epJ8fNcUHL24XufwKtasE"  >
<path style="stroke: none; stroke-width: 1; stroke-dasharray: none; stroke-linecap: butt; stroke-dashoffset: 0; stroke-linejoin: miter; stroke-miterlimit: 4; fill: rgb(249,249,249); fill-rule: evenodd; opacity: 1;"  transform=" translate(-46.6108894367, -43.4191105633)" d="M 47 31.7 C 47.92300776919688 30.78882191380287 49.40699223080312 30.78882191380287 50.33 31.7 C 52.48 33.86 56.19 37.57 58.33 39.7 C 59.24117808619713 40.62300776919688 59.24117808619713 42.10699223080312 58.33 43.03 L 46.23 55.13 C 45.78902404460382 55.572732177226946 45.18987724713713 55.82160469127533 44.565 55.82160469127533 C 43.94012275286286 55.82160469127533 43.340975955396175 55.572732177226946 42.9 55.13 L 34.9 47.13 C 34.457267822773055 46.689024044603826 34.20839530872467 46.08987724713714 34.20839530872467 45.465 C 34.20839530872467 44.84012275286287 34.45726782277305 44.24097595539618 34.9 43.800000000000004 Z" stroke-linecap="round" />
</g>
		<g transform="matrix(-2.4077903536 0.1683691033 -0.1683691033 -2.4077903536 114.5503395645 -129.0974190335)" id="xJBhQPCbORJNJzwLciG3J"  >
<path style="stroke: none; stroke-width: 1; stroke-dasharray: none; stroke-linecap: butt; stroke-dashoffset: 0; stroke-linejoin: miter; stroke-miterlimit: 4; fill: rgb(254,134,87); fill-rule: nonzero; opacity: 1;"  transform=" translate(-5.03, -1.745)" d="M 0 3.49 L 0 0 L 10.06 0 L 10.06 3.49 z" stroke-linecap="round" />
</g>
		<g transform="matrix(-2.4077903536 0.1683691033 -0.1683691033 -2.4077903536 132.2843914155 -113.6184021531)" id="QAisN095n_8h12LQynR1S"  >
<path style="stroke: none; stroke-width: 1; stroke-dasharray: none; stroke-linecap: butt; stroke-dashoffset: 0; stroke-linejoin: miter; stroke-miterlimit: 4; fill: rgb(249,249,249); fill-rule: evenodd; opacity: 1;"  transform=" translate(-20.598364734, -17.3878995114)" d="M 20.2 29.11 C 19.759024044603827 29.552732177226947 19.159877247137132 29.80160469127533 18.534999999999997 29.80160469127533 C 17.910122752862865 29.80160469127533 17.310975955396174 29.552732177226947 16.869999999999997 29.11 L 8.869999999999997 21.11 C 8.42726782277305 20.669024044603827 8.17839530872467 20.069877247137132 8.17839530872467 19.445 C 8.17839530872467 18.82012275286287 8.42726782277305 18.220975955396177 8.869999999999997 17.78 L 21 5.67 C 21.43965067236045 5.224785979114353 22.039293808485034 4.974194331580061 22.665 4.974194331580061 C 23.290706191514964 4.974194331580061 23.890349327639548 5.224785979114353 24.33 5.669999999999999 L 32.33 13.67 C 33.24777887897835 14.594190053984807 33.24777887897835 16.08580994601519 32.33 17.009999999999998 Z" stroke-linecap="round" />
</g>
		<g transform="matrix(-2.4077903536 0.1683691033 -0.1683691033 -2.4077903536 154.2812023321 -206.5969698603)" id="UuPIkME8gvzKuX3IlcViU"  >
<path style="stroke: none; stroke-width: 1; stroke-dasharray: none; stroke-linecap: butt; stroke-dashoffset: 0; stroke-linejoin: miter; stroke-miterlimit: 4; fill: rgb(252,198,103); fill-rule: evenodd; opacity: 1;"  transform=" translate(-8.82, -55.18)" d="M 14.35 59.29 L 4.71 49.65 C 4.317877827620136 49.257877827620135 3.682122172379862 49.257877827620135 3.289999999999999 49.65 C 2.897877827620136 50.04212217237986 2.8978778276201362 50.67787782762014 3.2900000000000005 51.07 L 12.93 60.71 C 13.322122172379864 61.102122172379865 13.957877827620138 61.102122172379865 14.350000000000001 60.71 C 14.742122172379863 60.31787782762014 14.742122172379863 59.68212217237986 14.35 59.29 Z" stroke-linecap="round" />
</g>
		<g transform="matrix(-2.4077903536 0.1683691033 -0.1683691033 -2.4077903536 150.0151048502 -201.6893860949)" id="y3BA8E74niWcbimLjl3nr"  >
<path style="stroke: none; stroke-width: 1; stroke-dasharray: none; stroke-linecap: butt; stroke-dashoffset: 0; stroke-linejoin: miter; stroke-miterlimit: 4; fill: rgb(252,198,103); fill-rule: evenodd; opacity: 1;"  transform=" translate(-10.725, -53.275)" d="M 13.66 54.8 L 9.2 50.34 C 8.803239722544298 50.00022320407131 8.2118058284543 50.023067730318985 7.842436779386642 50.39243677938664 C 7.4730677303189825 50.7618058284543 7.450223204071307 51.3532397225443 7.789999999999999 51.75 L 12.25 56.21 C 12.646760277455702 56.54977679592869 13.238194171545699 56.52693226968102 13.607563220613358 56.15756322061336 C 13.976932269681017 55.788194171545705 13.999776795928693 55.19676027745571 13.66 54.800000000000004 Z" stroke-linecap="round" />
</g>
		<g transform="matrix(-2.4077903536 0.1683691033 -0.1683691033 -2.4077903536 145.7225959902 -196.7820201949)" id="uOmC0gSJgJk51nDS3Admd"  >
<path style="stroke: none; stroke-width: 1; stroke-dasharray: none; stroke-linecap: butt; stroke-dashoffset: 0; stroke-linejoin: miter; stroke-miterlimit: 4; fill: rgb(252,198,103); fill-rule: evenodd; opacity: 1;"  transform=" translate(-12.6409094635, -51.3708533475)" d="M 16.69 54 L 10 47.31 C 9.607877827620136 46.91787782762014 8.972122172379862 46.91787782762014 8.579999999999998 47.31 C 8.187877827620136 47.702122172379866 8.187877827620136 48.33787782762014 8.58 48.730000000000004 L 15.280000000000001 55.43000000000001 C 15.467766599905557 55.619312650823105 15.723362463629444 55.725798324341675 15.990000000000002 55.725798324341675 C 16.25663753637056 55.725798324341675 16.512233400094445 55.619312650823105 16.700000000000003 55.43000000000001 C 16.89110328572059 55.240517280759114 16.997767964135896 54.98200670625694 16.995886070397077 54.71289590160562 C 16.994004176658255 54.443785096954294 16.88373457428447 54.186791545394705 16.69 54 Z" stroke-linecap="round" />
</g>
		<g transform="matrix(-2.4077903536 0.1683691033 -0.1683691033 -2.4077903536 141.4829098866 -191.8742185642)" id="sInL4d4g6jqLgCjcMz-wW"  >
<path style="stroke: none; stroke-width: 1; stroke-dasharray: none; stroke-linecap: butt; stroke-dashoffset: 0; stroke-linejoin: miter; stroke-miterlimit: 4; fill: rgb(252,198,103); fill-rule: evenodd; opacity: 1;"  transform=" translate(-14.535, -49.465)" d="M 16.34 49.85 L 14.15 47.660000000000004 C 13.757877827620137 47.26787782762014 13.122122172379862 47.26787782762014 12.729999999999999 47.660000000000004 C 12.337877827620137 48.05212217237987 12.337877827620137 48.68787782762014 12.73 49.080000000000005 L 14.92 51.27 C 15.312122172379864 51.66212217237987 15.947877827620138 51.66212217237987 16.34 51.27 C 16.732122172379864 50.87787782762014 16.732122172379864 50.242122172379865 16.34 49.85 Z" stroke-linecap="round" />
</g>
</g>
</g>
</svg>