<?xml version="1.0" encoding="UTF-8" standalone="no" ?>
<!DOCTYPE svg PUBLIC "-//W3C//DTD SVG 1.1//EN" "http://www.w3.org/Graphics/SVG/1.1/DTD/svg11.dtd">
<svg xmlns="http://www.w3.org/2000/svg" xmlns:xlink="http://www.w3.org/1999/xlink" version="1.1" width="640" height="640" viewBox="0 0 640 640" xml:space="preserve">
<desc>Created with Fabric.js 5.3.0</desc>
<defs>
</defs>
<g transform="matrix(6.3447559709 0 0 6.3447559709 340.1038421599 281.9522326064)" id="IkMX7vM-DhX9nuOdwWm6g"  >
<g style=""   >
		<g transform="matrix(1 0 0 1 0.2416192272 -0.0288358166)" id="57kpGGkBKkC3ZHS-DvUwm"  >
<path style="stroke: none; stroke-width: 1; stroke-dasharray: none; stroke-linecap: butt; stroke-dashoffset: 0; stroke-linejoin: miter; stroke-miterlimit: 4; fill: rgb(108,197,239); fill-rule: nonzero; opacity: 1;"  transform=" translate(-32.2416192272, -31.9711641834)" d="M 46.76 19.24 C 53.415715368197226 26.829399549697612 53.10287506573325 38.264495857677574 46.042165649718356 45.47864273239573 C 38.98145623370346 52.69278960711388 27.55572649671863 53.25135616984666 19.825015181432136 46.760313484182944 C 12.094303866145644 40.26927079851923 10.667572061033994 28.91921648217761 16.5512774619565 20.71680565714803 C 22.434982862879004 12.514394832118448 33.64349208876338 10.227777776097284 42.26999999999998 15.46999999999999 Z" stroke-linecap="round" />
</g>
		<g transform="matrix(1 0 0 1 -11.466897442 1.5666454871)" id="feTRn3-vHz4iMZJEACjdt"  >
<path style="stroke: none; stroke-width: 1; stroke-dasharray: none; stroke-linecap: butt; stroke-dashoffset: 0; stroke-linejoin: miter; stroke-miterlimit: 4; fill: rgb(96,233,119); fill-rule: nonzero; opacity: 1;"  transform=" translate(-20.533102558, -33.5666454871)" d="M 23.81 23.28 C 23.262560282226143 23.24183330538432 22.716119615079478 23.367131802309668 22.24 23.64 L 13.179999999999998 28.880000000000003 C 12.45917248583521 33.2727503139925 13.286292460633717 37.77949376642026 15.519999999999998 41.63 C 15.961516915177201 42.40645119880017 16.456021909377014 43.1515499400607 16.999999999999993 43.85999999999999 L 26.77 38.22 C 28.081676280848132 37.460608468982656 28.52939153101734 35.78167628084813 27.77 34.47 C 27.010608468982657 33.158323719151866 25.331676280848132 32.710608468982656 24.02 33.47 L 21.02 35.19 C 20.411470426919696 35.70081734844592 19.558282206836093 35.80299534861428 18.84634032044796 35.450317939084364 C 18.13439843405983 35.09764052955445 17.698723712053457 34.35699350214362 17.73637589016961 33.563378407611175 C 17.774028068285766 32.769763313078734 18.277866355311588 32.07369042671214 19.02 31.79 L 25 28.4 C 25.630767597047996 28.0361440604232 26.090753922909077 27.43616970654107 26.27838097529878 26.732568260079674 C 26.466008027688485 26.02896681361828 26.365841141219153 25.27961826978137 26 24.65 C 25.54998718026292 23.85109190479609 24.725271293190026 23.335173747129485 23.81 23.28 Z" stroke-linecap="round" />
</g>
		<g transform="matrix(1 0 0 1 0.23815693 -0.030017606)" id="JRpdf9HmUmMnzwb6gSPgJ"  >
<path style="stroke: none; stroke-width: 1; stroke-dasharray: none; stroke-linecap: butt; stroke-dashoffset: 0; stroke-linejoin: miter; stroke-miterlimit: 4; fill: rgb(230,229,225); fill-rule: nonzero; opacity: 1;"  transform=" translate(-32.23815693, -31.969982394)" d="M 32.27 52.28 C 23.669797444455998 52.296111043757605 15.991779525300739 46.8937288707461 13.102447985573999 38.793388950986134 C 10.213116445847259 30.693049031226167 12.73892543143549 21.6510370162782 19.407926250867426 16.220735769336855 C 26.07692707029937 10.790434522395515 35.443171705907105 10.149221815026777 42.790000000000006 14.620000000000005 C 42.83672410038687 14.640717583295626 42.88044940829995 14.66762546508829 42.92 14.7 L 47.400000000000006 18.47 L 47.510000000000005 18.58 C 48.38963456797646 19.579780282265176 49.166852008227416 20.66520463847772 49.83 21.81999999999999 C 53.45955378580097 28.098315826317464 53.4642421473082 35.835996071633716 49.84229925084958 42.118705674488474 C 46.22035635439096 48.40141527734323 39.52195720724873 52.27480738569676 32.26999999999998 52.28 Z M 32.27 13.660000000000004 C 23.974974198671127 13.643878381524978 16.7041624174007 19.203346109841668 14.545566400805239 27.21260176741886 C 12.386970384209778 35.22185742499605 15.879285766845005 43.6821244804184 23.058964074833455 47.83663195364482 C 30.238642382821904 51.991139426871236 39.31393502944657 50.803095337211396 45.1822739262478 44.94047548397311 C 51.050612823049036 39.077855630734824 52.24750506746587 30.00372568147191 48.1 22.820000000000007 C 47.52701204796483 21.804470880866987 46.857232805556464 20.846686564223024 46.1 19.96 L 41.730000000000004 16.29 C 38.865789019657775 14.56409582489279 35.58401265713814 13.654604588493774 32.23999999999999 13.659999999999998 Z" stroke-linecap="round" />
</g>
		<g transform="matrix(1 0 0 1 1.9341245439 -11.9399667339)" id="rlEJKiU6Cts7gP6-KmkBe"  >
<path style="stroke: none; stroke-width: 1; stroke-dasharray: none; stroke-linecap: butt; stroke-dashoffset: 0; stroke-linejoin: miter; stroke-miterlimit: 4; fill: rgb(96,233,119); fill-rule: nonzero; opacity: 1;"  transform=" translate(-33.9341245439, -20.0600332661)" d="M 31.26 18.44 L 33.93 16.89 C 35.238663108730364 16.18786789467749 36.86838608545231 16.65162872753287 37.61131455641573 17.93757037181864 C 38.35424302737915 19.223512016104408 37.94194880261611 20.86700967754881 36.68000000000001 21.65 L 34 23.19 C 32.68832371915187 23.946630107268188 31.01163010726819 23.49667628084814 30.255 22.185000000000002 C 29.498369892731812 20.87332371915187 29.948323719151865 19.196630107268188 31.259999999999998 18.44 Z" stroke-linecap="round" />
</g>
		<g transform="matrix(1 0 0 1 6.7756606879 4.75)" id="dHwBrGIamJTXv28JsFI_W"  >
<path style="stroke: none; stroke-width: 1; stroke-dasharray: none; stroke-linecap: butt; stroke-dashoffset: 0; stroke-linejoin: miter; stroke-miterlimit: 4; fill: rgb(96,233,119); fill-rule: nonzero; opacity: 1;"  transform=" translate(-38.7756606879, -36.75)" d="M 32.8 33.75 C 31.902537281524957 34.26362481734264 31.59137518265736 35.40753728152496 32.105 36.305 C 32.618624817342635 37.20246271847504 33.762537281524956 37.51362481734264 34.66 37 L 34.66 37 C 35.551939870976724 36.48637518265736 36.69137518265735 36.79306012902327 37.20499999999999 37.684999999999995 C 37.71862481734263 38.57693987097673 37.411939870976724 39.71637518265736 36.519999999999996 40.23 L 36.519999999999996 40.23 L 33.59 41.9 C 32.698060129023276 42.41362481734264 32.39137518265737 43.553060129023265 32.90500000000001 44.445 C 33.418624817342646 45.33693987097673 34.558060129023275 45.64362481734263 35.45 45.129999999999995 L 44.760000000000005 39.76 C 45.65193987097673 39.24637518265736 45.95862481734264 38.10693987097673 45.445 37.215 C 44.93137518265737 36.32306012902327 43.791939870976734 36.01637518265736 42.900000000000006 36.53 C 42.00806012902327 37.05467051233926 40.85967051233926 36.75693987097674 40.335 35.865 C 39.810329487660745 34.97306012902327 40.108060129023265 33.82467051233925 41 33.3 L 44 31.6 C 44.891939870976735 31.086375182657363 45.19862481734264 29.946939870976735 44.685 29.055 C 44.171375182657364 28.163060129023272 43.031939870976736 27.856375182657363 42.14 28.37 Z" stroke-linecap="round" />
</g>
		<g transform="matrix(1 0 0 1 12.935 -15.065)" id="7V-tmwSbxGgeNDly-KBrN"  >
<path style="stroke: none; stroke-width: 1; stroke-dasharray: none; stroke-linecap: butt; stroke-dashoffset: 0; stroke-linejoin: miter; stroke-miterlimit: 4; fill: rgb(249,249,249); fill-rule: evenodd; opacity: 1;"  transform=" translate(-44.935, -16.935)" d="M 41.2 17.85 C 41.03195267348443 17.67065452873729 40.93583669740577 17.43570436498945 40.93 17.19 C 40.9313689526905 16.946328117838966 41.02832005494969 16.712927316103883 41.2 16.540000000000003 L 44.81 12.930000000000003 L 48.940000000000005 17.060000000000002 L 45.330000000000005 20.67 C 45.157072683896125 20.841679945050316 44.923671882161045 20.938631047309503 44.68000000000001 20.94 C 44.43429563501056 20.934163302594232 44.19934547126272 20.83804732651557 44.02000000000001 20.67 Z" stroke-linecap="round" />
</g>
		<g transform="matrix(1 0 0 1 21.4900001238 -23.62)" id="Gqj49EzpioffPUuHnxorx"  >
<path style="stroke: none; stroke-width: 1; stroke-dasharray: none; stroke-linecap: butt; stroke-dashoffset: 0; stroke-linejoin: miter; stroke-miterlimit: 4; fill: rgb(249,249,249); fill-rule: evenodd; opacity: 1;"  transform=" translate(-53.4900001238, -8.38)" d="M 57.22 7.47 C 57.385795713226955 7.646787814339005 57.481743355896555 7.877772880025075 57.49 8.12 C 57.49017912957269 8.366923260320027 57.39319256691066 8.604001524604978 57.22 8.78 L 53.61 12.379999999999999 L 49.49 8.26 L 53.09 4.65 C 53.262927316103884 4.478320054949687 53.496328117838964 4.3813689526905 53.74 4.380000000000001 C 53.98570436498945 4.385836697405768 54.220654528737285 4.48195267348443 54.4 4.65 Z" stroke-linecap="round" />
</g>
		<g transform="matrix(1 0 0 1 17.155351503 -19.3942244877)" id="9qOkBEFR7i2rXzR5Li34Y"  >
<path style="stroke: none; stroke-width: 1; stroke-dasharray: none; stroke-linecap: butt; stroke-dashoffset: 0; stroke-linejoin: miter; stroke-miterlimit: 4; fill: rgb(118,118,137); fill-rule: nonzero; opacity: 1;"  transform=" translate(-49.155351503, -12.6057755123)" d="M 44.94 8.39 C 45.55939463932026 7.767114628956623 46.401571912631134 7.416886331559839 47.28 7.416886331559839 C 48.15842808736886 7.416886331559839 49.000605360679735 7.767114628956623 49.62 8.39 L 53.48 12.24 C 54.67333260197826 13.551178536690403 54.625895198940064 15.56861306323144 53.372254131085754 16.822254131085753 C 52.11861306323144 18.075895198940067 50.1011785366904 18.123332601978266 48.79 16.93 L 44.94 13.08 C 44.31651150133905 12.458894234280173 43.96603831304198 11.615062656958525 43.96603831304198 10.735 C 43.96603831304198 9.854937343041478 44.31651150133905 9.01110576571983 44.94 8.39 Z" stroke-linecap="round" />
</g>
		<g transform="matrix(1 0 0 1 4.014084875 -5.2312999521)" id="YOR84NH9LXeGNVzI-z2EW"  >
<path style="stroke: none; stroke-width: 1; stroke-dasharray: none; stroke-linecap: butt; stroke-dashoffset: 0; stroke-linejoin: miter; stroke-miterlimit: 4; fill: rgb(96,233,119); fill-rule: nonzero; opacity: 1;"  transform=" translate(-36.014084875, -26.7687000479)" d="M 37.46 26.41 C 37.605850401757536 26.99624435045194 37.38328453502832 27.6125348822595 36.89651118629009 27.97031482173044 C 36.40973783755187 28.328094761201378 35.755108075986996 28.35654577000765 35.23912969655713 28.04234664510343 C 34.72315131712727 27.728147520199208 34.44795618194422 27.133490289350906 34.54239491623393 26.536802679629197 C 34.636833650523634 25.94011506990749 35.08221321563755 25.45950438795429 35.67 25.32 C 36.05194309891042 25.226640123723424 36.45533773092392 25.289100242051543 36.79116189514229 25.493596520821384 C 37.12698605936065 25.698092799591223 37.367634356769514 26.02781524722421 37.46 26.41 Z" stroke-linecap="round" />
</g>
		<g transform="matrix(1 0 0 1 -4.8508381465 12.0883866452)" id="-EqAUpX9YuItIuY6PzENf"  >
<path style="stroke: none; stroke-width: 1; stroke-dasharray: none; stroke-linecap: butt; stroke-dashoffset: 0; stroke-linejoin: miter; stroke-miterlimit: 4; fill: rgb(96,233,119); fill-rule: nonzero; opacity: 1;"  transform=" translate(-27.1491618535, -44.0883866452)" d="M 28.59 43.75 C 28.77646051424814 44.54432585992925 28.284887990943982 45.339723280189915 27.491037135544058 45.5281958630948 C 26.697186280144138 45.71666844599968 25.90054586403068 45.22711288302493 25.710062422497057 44.43374212882011 C 25.519578980963438 43.64037137461528 26.007114440573705 42.84249307722429 26.8 42.65 C 27.18333485189993 42.55693574328315 27.58796044446883 42.62075350865446 27.924042948566335 42.82728465642387 C 28.260125452663836 43.03381580419329 28.49985229486811 43.36596880879432 28.59 43.75 Z" stroke-linecap="round" />
</g>
		<g transform="matrix(1 0 0 1 -2.9270269271 27.9528387218)" id="nRapH_lIr0OD_vEOJPYln"  >
<path style="stroke: none; stroke-width: 1; stroke-dasharray: none; stroke-linecap: butt; stroke-dashoffset: 0; stroke-linejoin: miter; stroke-miterlimit: 4; fill: rgb(108,197,239); fill-rule: evenodd; opacity: 1;"  transform=" translate(-29.0729730729, -59.9528387218)" d="M 29.6 59 L 28.76 58.92 C 28.21347033283338 58.84906724602862 27.712572023774776 59.233685590484335 27.64 59.78 C 27.606073151013373 60.04402470294251 27.678814855793746 60.31068010147696 27.84211314285712 60.52090318367349 C 28.005411429920496 60.73112626587002 28.24578782455864 60.867565432104236 28.51 60.9 L 29.42 60.99 C 29.972284749830795 61.03970562748477 30.46029437251523 60.632284749830795 30.51 60.080000000000005 C 30.559705627484774 59.52771525016921 30.152284749830795 59.03970562748477 29.6 58.99 Z" stroke-linecap="round" />
</g>
		<g transform="matrix(1 0 0 1 5.7826281382 27.51726626)" id="nohJzrU5V_QXq9ZjpA3Fg"  >
<path style="stroke: none; stroke-width: 1; stroke-dasharray: none; stroke-linecap: butt; stroke-dashoffset: 0; stroke-linejoin: miter; stroke-miterlimit: 4; fill: rgb(108,197,239); fill-rule: evenodd; opacity: 1;"  transform=" translate(-37.7826281382, -59.51726626)" d="M 38 58.43 C 37.72 58.5 37.45 58.56 37.17 58.61 C 36.617715250169205 58.71493410246785 36.25506589753215 59.24771525016921 36.36 59.800000000000004 C 36.46493410246786 60.352284749830794 36.99771525016921 60.71493410246785 37.550000000000004 60.61 C 37.85 60.61 38.150000000000006 60.49 38.440000000000005 60.42 C 38.977939277233844 60.30048872896245 39.3178161693875 59.76831306887975 39.2 59.230000000000004 C 39.15197502946117 58.96211504378718 38.99683989180528 58.72537590250197 38.770392627093024 58.57441105936047 C 38.54394536238076 58.42344621621896 38.265749563634465 58.37129806656938 38 58.43 Z" stroke-linecap="round" />
</g>
		<g transform="matrix(1 0 0 1 -11.3510175326 25.7525380858)" id="CW_NyoxWhIvTOIrLADUIl"  >
<path style="stroke: none; stroke-width: 1; stroke-dasharray: none; stroke-linecap: butt; stroke-dashoffset: 0; stroke-linejoin: miter; stroke-miterlimit: 4; fill: rgb(108,197,239); fill-rule: evenodd; opacity: 1;"  transform=" translate(-20.6489824674, -57.7525380858)" d="M 21.41 57 L 20.63 56.65 C 20.127420877653975 56.41804040507107 19.53195959492893 56.63742087765398 19.299999999999997 57.14 C 19.068040405071066 57.64257912234602 19.28742087765398 58.23804040507107 19.79 58.47 L 20.619999999999997 58.83 C 20.95261655930886 59.0073188583427 21.35668117853806 58.98254381771845 21.66514316732628 58.76591751616843 C 21.973605156114502 58.54929121461841 22.13405284352591 58.17762125517172 22.080153035132152 57.80456554390926 C 22.02625322673839 57.431509832646796 21.767164195272304 57.120455347186876 21.41 57 Z" stroke-linecap="round" />
</g>
		<g transform="matrix(1 0 0 1 13.971984267 24.3820307098)" id="REd_jtwpPsCV2tzBziIC_"  >
<path style="stroke: none; stroke-width: 1; stroke-dasharray: none; stroke-linecap: butt; stroke-dashoffset: 0; stroke-linejoin: miter; stroke-miterlimit: 4; fill: rgb(108,197,239); fill-rule: evenodd; opacity: 1;"  transform=" translate(-45.971984267, -56.3820307098)" d="M 45.87 55.27 L 45.5 55.49 L 45.13 55.7 C 44.64675084389806 55.9761423749154 44.47885762508461 56.591750843898055 44.755 57.075 C 45.0311423749154 57.558249156101944 45.646750843898054 57.7261423749154 46.13 57.45 L 46.52 57.220000000000006 L 46.910000000000004 56.99000000000001 C 47.32472214104799 56.688390888897914 47.44408752522087 56.12195513741055 47.18634440639332 55.67863697302715 C 46.928601287565755 55.235318808643754 46.37729162874383 55.05881040773477 45.910000000000004 55.27000000000001 Z" stroke-linecap="round" />
</g>
		<g transform="matrix(1 0 0 1 -18.7342469369 20.9207530631)" id="zMcKIzXBOlBDNakPx4Buw"  >
<path style="stroke: none; stroke-width: 1; stroke-dasharray: none; stroke-linecap: butt; stroke-dashoffset: 0; stroke-linejoin: miter; stroke-miterlimit: 4; fill: rgb(108,197,239); fill-rule: evenodd; opacity: 1;"  transform=" translate(-13.2657530631, -52.9207530631)" d="M 14.25 52.46 L 13.62 51.89 C 13.214070708874367 51.51444637011506 12.580553629884939 51.53907070887437 12.205 51.945 C 11.829446370115061 52.35092929112563 11.854070708874367 52.98444637011506 12.26 53.36 L 12.93 53.97 C 13.346974986122248 54.33450793488832 13.980492065111676 54.29197498612225 14.344999999999999 53.875 C 14.709507934888322 53.45802501387775 14.666974986122248 52.824507934888324 14.25 52.46 Z" stroke-linecap="round" />
</g>
		<g transform="matrix(1 0 0 1 20.8090523529 18.8484476471)" id="DB7kmAfDsiAjDT-AzqaVa"  >
<path style="stroke: none; stroke-width: 1; stroke-dasharray: none; stroke-linecap: butt; stroke-dashoffset: 0; stroke-linejoin: miter; stroke-miterlimit: 4; fill: rgb(108,197,239); fill-rule: evenodd; opacity: 1;"  transform=" translate(-52.8090523529, -50.8484476471)" d="M 52.35 49.86 L 51.78 50.49 C 51.40168494636591 50.89592929112563 51.42407070887437 51.53168494636591 51.83 51.91 C 52.235929291125636 52.28831505363409 52.87168494636591 52.26592929112563 53.25 51.86 L 53.86 51.18 C 54.22450793488832 50.76302501387775 54.18197498612225 50.12950793488832 53.765 49.765 C 53.34802501387775 49.40049206511168 52.714507934888324 49.44302501387775 52.35 49.86 Z" stroke-linecap="round" />
</g>
		<g transform="matrix(1 0 0 1 -24.2374924238 14.1559978317)" id="aIFblLrP-U57VOpPg-VVf"  >
<path style="stroke: none; stroke-width: 1; stroke-dasharray: none; stroke-linecap: butt; stroke-dashoffset: 0; stroke-linejoin: miter; stroke-miterlimit: 4; fill: rgb(108,197,239); fill-rule: evenodd; opacity: 1;"  transform=" translate(-7.7625075762, -46.1559978317)" d="M 8.84 46 L 8.62 45.63 L 8.409999999999998 45.27 C 8.133857625084602 44.78675084389806 7.518249156101943 44.61885762508461 7.034999999999998 44.895 C 6.551750843898055 45.1711423749154 6.383857625084602 45.78675084389806 6.659999999999998 46.27 L 6.889999999999999 46.67 C 6.959999999999999 46.800000000000004 7.039999999999999 46.93 7.119999999999999 47.06 C 7.401718961518889 47.5348931258639 8.015022379817832 47.691576480903784 8.489999999999998 47.410000000000004 C 8.729248241436684 47.27478109138434 8.902304339440773 47.047061473255106 8.968511842269304 46.78033981900302 C 9.034719345097836 46.51361816475094 8.988242422259368 46.23140453435582 8.84 46 Z" stroke-linecap="round" />
</g>
		<g transform="matrix(1 0 0 1 25.5741619622 11.4991392692)" id="tsyumxK7RJb9SalSmNQ-Q"  >
<path style="stroke: none; stroke-width: 1; stroke-dasharray: none; stroke-linecap: butt; stroke-dashoffset: 0; stroke-linejoin: miter; stroke-miterlimit: 4; fill: rgb(108,197,239); fill-rule: evenodd; opacity: 1;"  transform=" translate(-57.5741619622, -43.4991392692)" d="M 56.83 42.7 C 56.72 42.96 56.61 43.220000000000006 56.489999999999995 43.480000000000004 C 56.258040405071064 43.982579122346024 56.47742087765397 44.57804040507107 56.98 44.81 C 57.48257912234602 45.04195959492894 58.078040405071064 44.82257912234603 58.309999999999995 44.32000000000001 C 58.42999999999999 44.040000000000006 58.559999999999995 43.77000000000001 58.669999999999995 43.49000000000001 C 58.88614404479128 42.9846313656021 58.653898149035214 42.39955035898586 58.14999999999999 42.18000000000001 C 57.9061018810647 42.07302802552331 57.6296082944836 42.06776619589497 57.381816772501324 42.16538103788799 C 57.13402525051904 42.26299587988101 56.935408835707044 42.45542225551269 56.83 42.7 Z" stroke-linecap="round" />
</g>
		<g transform="matrix(1 0 0 1 -27.4077416268 5.9246527714)" id="aJhQHRtvVKqZ5lsV66fCO"  >
<path style="stroke: none; stroke-width: 1; stroke-dasharray: none; stroke-linecap: butt; stroke-dashoffset: 0; stroke-linejoin: miter; stroke-miterlimit: 4; fill: rgb(108,197,239); fill-rule: evenodd; opacity: 1;"  transform=" translate(-4.5922583732, -37.9246527714)" d="M 5.68 38.14 C 5.609999999999999 37.86 5.55 37.59 5.5 37.31 C 5.392304473782995 36.75771525016921 4.857284749830793 36.397304473782995 4.305 36.505 C 3.752715250169206 36.61269552621701 3.392304473782995 37.14771525016921 3.5 37.7 C 3.56 37.99 3.62 38.290000000000006 3.69 38.580000000000005 C 3.8095112710375503 39.117939277233845 4.341686931120252 39.4578161693875 4.88 39.34 C 5.147884956212824 39.29197502946116 5.384624097498026 39.13683989180528 5.535588940639531 38.910392627093024 C 5.6865537837810365 38.68394536238076 5.7387019334306215 38.405749563634465 5.68 38.14 Z" stroke-linecap="round" />
</g>
		<g transform="matrix(1 0 0 1 27.8431084309 3.0393915691)" id="QuSTCj4xuF09OLdTFsIqK"  >
<path style="stroke: none; stroke-width: 1; stroke-dasharray: none; stroke-linecap: butt; stroke-dashoffset: 0; stroke-linejoin: miter; stroke-miterlimit: 4; fill: rgb(108,197,239); fill-rule: evenodd; opacity: 1;"  transform=" translate(-59.8431084309, -35.0393915691)" d="M 58.89 34.51 Q 58.89 34.93 58.8 35.35 C 58.73096440627115 35.9022847498308 59.12271525016921 36.40596440627115 59.675 36.475 C 60.227284749830794 36.54403559372885 60.73096440627115 36.15228474983079 60.8 35.6 C 60.8 35.300000000000004 60.87 34.99 60.89 34.690000000000005 C 60.93970562748477 34.13771525016921 60.532284749830794 33.64970562748478 59.980000000000004 33.6 C 59.42771525016921 33.55029437251523 58.93970562748477 33.95771525016921 58.89 34.510000000000005 Z" stroke-linecap="round" />
</g>
		<g transform="matrix(1 0 0 1 -27.843415552 -2.816584448)" id="El8sEArMntDr5w5jfRtpU"  >
<path style="stroke: none; stroke-width: 1; stroke-dasharray: none; stroke-linecap: butt; stroke-dashoffset: 0; stroke-linejoin: miter; stroke-miterlimit: 4; fill: rgb(108,197,239); fill-rule: evenodd; opacity: 1;"  transform=" translate(-4.156584448, -29.183415552)" d="M 5.11 29.71 Q 5.11 29.29 5.2 28.87 C 5.266274169979695 28.317715250169208 4.872284749830793 27.816274169979696 4.319999999999999 27.750000000000004 C 3.767715250169206 27.683725830020308 3.2662741699796953 28.07771525016921 3.2 28.630000000000003 Q 3.14 29.080000000000002 3.1100000000000003 29.53 C 3.060294372515229 30.082284749830794 3.4677152501692072 30.57029437251523 4.0200000000000005 30.62 C 4.572284749830795 30.669705627484774 5.060294372515229 30.262284749830794 5.11 29.71 Z" stroke-linecap="round" />
</g>
		<g transform="matrix(1 0 0 1 27.40726626 -5.7026281382)" id="lucbVaxBtbMCTYN8NwhY4"  >
<path style="stroke: none; stroke-width: 1; stroke-dasharray: none; stroke-linecap: butt; stroke-dashoffset: 0; stroke-linejoin: miter; stroke-miterlimit: 4; fill: rgb(108,197,239); fill-rule: evenodd; opacity: 1;"  transform=" translate(-59.40726626, -26.2973718618)" d="M 58.32 26.08 C 58.39 26.36 58.45 26.63 58.5 26.909999999999997 C 58.60493410246785 27.46228474983079 59.13771525016921 27.824934102467846 59.69 27.72 C 60.242284749830795 27.615065897532148 60.60493410246785 27.08228474983079 60.5 26.529999999999998 C 60.44 26.229999999999997 60.38 25.929999999999996 60.31 25.639999999999997 C 60.19048872896246 25.102060722766158 59.65831306887975 24.7621838306125 59.120000000000005 24.879999999999995 C 58.85211504378718 24.928024970538832 58.615375902501974 25.08316010819472 58.46441105936047 25.309607372906974 C 58.31344621621896 25.536054637619234 58.26129806656938 25.81425043636553 58.32 26.08 Z" stroke-linecap="round" />
</g>
		<g transform="matrix(1 0 0 1 -25.5772841365 -11.2941225531)" id="U1d0jruhbDgJD6TpjFoKj"  >
<path style="stroke: none; stroke-width: 1; stroke-dasharray: none; stroke-linecap: butt; stroke-dashoffset: 0; stroke-linejoin: miter; stroke-miterlimit: 4; fill: rgb(108,197,239); fill-rule: evenodd; opacity: 1;"  transform=" translate(-6.4227158635, -20.7058774469)" d="M 7.17 21.52 C 7.28 21.259999999999998 7.39 21 7.51 20.74 C 7.6207520631350825 20.49625174645278 7.629138039139957 20.21827206094976 7.533280600538417 19.968290897537898 C 7.437423161936875 19.718309734126038 7.245328533080516 19.51720607003597 7 19.41 C 6.500088292395277 19.183400491443543 5.910965061319518 19.402090175706515 5.68 19.9 C 5.55 20.18 5.43 20.45 5.31 20.729999999999997 C 5.122245233352121 21.229606167910738 5.359929013873345 21.78860320728473 5.85 22 C 6.347226359865601 22.227934327284252 6.935324474562964 22.0140804673943 7.17 21.52 Z" stroke-linecap="round" />
</g>
		<g transform="matrix(1 0 0 1 22.4050534429 -14.1292336637)" id="RDxqqbpLWsrUPB6TBcUhW"  >
<path style="stroke: none; stroke-width: 1; stroke-dasharray: none; stroke-linecap: butt; stroke-dashoffset: 0; stroke-linejoin: miter; stroke-miterlimit: 4; fill: rgb(95,95,112); fill-rule: evenodd; opacity: 1;"  transform=" translate(-54.4050534429, -17.8707663363)" d="M 52.77 17.64 L 54.53 19.39 C 54.76255922659242 19.70461997167964 55.157236977727436 19.854721300616113 55.540092143400905 19.77415181153928 C 55.922947309074374 19.69358232246245 56.22365311419829 19.397141847907665 56.309683462793025 19.015476681074706 C 56.395713811387765 18.633811514241746 56.25126576406833 18.23702983899062 55.94 18 L 54.19 16.24 C 53.797877827620134 15.847877827620135 53.16212217237986 15.847877827620135 52.769999999999996 16.24 C 52.37787782762013 16.63212217237986 52.37787782762013 17.267877827620133 52.769999999999996 17.659999999999997 Z" stroke-linecap="round" />
</g>
		<g transform="matrix(1 0 0 1 17.1831842967 -19.3331842967)" id="dyWVjzFh_iIiW2WfaR72a"  >
<path style="stroke: none; stroke-width: 1; stroke-dasharray: none; stroke-linecap: butt; stroke-dashoffset: 0; stroke-linejoin: miter; stroke-miterlimit: 4; fill: rgb(95,95,112); fill-rule: evenodd; opacity: 1;"  transform=" translate(-49.1831842967, -12.6668157033)" d="M 47.58 15.71 L 52.26 11 C 52.59977679592869 10.603239722544298 52.576932269681016 10.011805828454301 52.20756322061336 9.642436779386642 C 51.8381941715457 9.273067730318983 51.24676027745571 9.250223204071307 50.85 9.59 L 46.160000000000004 14.27 C 45.76787782762014 14.662122172379863 45.76787782762014 15.297877827620137 46.160000000000004 15.690000000000001 C 46.55212217237987 16.082122172379865 47.18787782762014 16.08212217237986 47.580000000000005 15.69 Z" stroke-linecap="round" />
</g>
		<g transform="matrix(1 0 0 1 -20.8107530631 -18.6242469369)" id="eRZ3tCwoAQkEs7vQqUSJ4"  >
<path style="stroke: none; stroke-width: 1; stroke-dasharray: none; stroke-linecap: butt; stroke-dashoffset: 0; stroke-linejoin: miter; stroke-miterlimit: 4; fill: rgb(108,197,239); fill-rule: evenodd; opacity: 1;"  transform=" translate(-11.1892469369, -13.3757530631)" d="M 11.65 14.36 Q 11.92 14.049999999999999 12.22 13.729999999999999 C 12.59555362988494 13.324070708874366 12.570929291125633 12.690553629884938 12.165 12.314999999999998 C 11.759070708874367 11.939446370115059 11.125553629884939 11.964070708874367 10.75 12.37 C 10.55 12.59 10.34 12.809999999999999 10.14 13.04 C 9.775492065111678 13.456974986122248 9.818025013877751 14.090492065111675 10.235000000000001 14.455 C 10.65197498612225 14.819507934888323 11.285492065111677 14.776974986122248 11.65 14.36 Z" stroke-linecap="round" />
</g>
		<g transform="matrix(1 0 0 1 -14.0654795559 -24.1042046481)" id="s3ha1RPSO-hFjt36p4eDr"  >
<path style="stroke: none; stroke-width: 1; stroke-dasharray: none; stroke-linecap: butt; stroke-dashoffset: 0; stroke-linejoin: miter; stroke-miterlimit: 4; fill: rgb(108,197,239); fill-rule: evenodd; opacity: 1;"  transform=" translate(-17.9345204441, -7.8957953519)" d="M 18.14 8.94 L 18.5 8.729999999999999 L 18.87 8.519999999999998 C 19.353249156101946 8.243857625084601 19.5211423749154 7.628249156101942 19.245 7.144999999999998 C 18.968857625084603 6.661750843898053 18.353249156101946 6.493857625084601 17.87 6.769999999999998 L 17.5 7 L 17.11 7.23 C 16.749070291918926 7.3787736291900705 16.507715669309007 7.723982314986772 16.491910288213877 8.114051586842823 C 16.476104907118746 8.504120858698874 16.688738848407795 8.86772489830315 17.036448652824816 9.045212190327533 C 17.38415845724184 9.222699482351914 17.803363914490244 9.181615723787024 18.11 8.940000000000001 Z" stroke-linecap="round" />
</g>
		<g transform="matrix(1 0 0 1 -5.7980978884 -27.2919021116)" id="0PyBl7jHEYnrBM2SJRfZj"  >
<path style="stroke: none; stroke-width: 1; stroke-dasharray: none; stroke-linecap: butt; stroke-dashoffset: 0; stroke-linejoin: miter; stroke-miterlimit: 4; fill: rgb(108,197,239); fill-rule: evenodd; opacity: 1;"  transform=" translate(-26.2019021116, -4.7080978884)" d="M 26 5.79 L 26.83 5.61 C 27.38228474983079 5.502304473782996 27.742695526217002 4.967284749830793 27.634999999999998 4.415 C 27.527304473782994 3.8627152501692064 26.99228474983079 3.5023044737829956 26.439999999999998 3.6100000000000003 L 25.549999999999997 3.8000000000000003 C 24.997715250169204 3.9242640687119286 24.650735931288068 4.472715250169206 24.774999999999995 5.025 C 24.899264068711926 5.577284749830794 25.447715250169203 5.9242640687119295 25.999999999999996 5.800000000000001 Z" stroke-linecap="round" />
</g>
		<g transform="matrix(1 0 0 1 2.926584448 -27.733415552)" id="upFFcvY7cJ_Tbp3TM3sEQ"  >
<path style="stroke: none; stroke-width: 1; stroke-dasharray: none; stroke-linecap: butt; stroke-dashoffset: 0; stroke-linejoin: miter; stroke-miterlimit: 4; fill: rgb(108,197,239); fill-rule: evenodd; opacity: 1;"  transform=" translate(-34.926584448, -4.266584448)" d="M 34.4 5.22 L 35.24 5.31 C 35.7922847498308 5.376274169979696 36.29372583002031 4.982284749830794 36.36 4.430000000000001 C 36.4262741699797 3.8777152501692074 36.0322847498308 3.3762741699796956 35.480000000000004 3.3099999999999996 C 35.18000000000001 3.3099999999999996 34.88 3.2399999999999998 34.580000000000005 3.2199999999999998 C 34.02771525016921 3.1702943725152286 33.53970562748478 3.5777152501692067 33.49 4.13 C 33.44029437251523 4.682284749830794 33.84771525016921 5.170294372515229 34.400000000000006 5.22 Z" stroke-linecap="round" />
</g>
</g>
</g>
<g transform="matrix(0.4215389569 0 0 0.4215389569 346.8163364419 290.4361137788)" id="OaIdXMNYEJzTyJHFkdl5M"  >
<path style="stroke: none; stroke-width: 1; stroke-dasharray: none; stroke-linecap: butt; stroke-dashoffset: 0; stroke-linejoin: miter; stroke-miterlimit: 4; fill: rgb(63,83,93); fill-rule: nonzero; opacity: 1;"  transform=" translate(-256.0008203104, -255.9998630775)" d="M 255.943 235.568 L 173.692 257.16200000000003 C 144.64000000000001 264.36800000000005 119.22900000000001 273.97400000000005 94.742 265.564 C 61.456 251.15300000000002 62.051 213.64900000000003 86.867 173.75400000000002 C 42.996 210.063 -35.956 326.154 70.822 337.878 C 84.425 339.67199999999997 108.64 334.89 134.946 323.791 L 255.94400000000002 273.995 L 494.61 176.14600000000002 L 285.598 227.76800000000003 L 255.943 235.568 z M 255.943 235.568" stroke-linecap="round" />
</g>
</svg>