<?xml version="1.0" standalone="no"?><!DOCTYPE svg PUBLIC "-//W3C//DTD SVG 1.1//EN" "http://www.w3.org/Graphics/SVG/1.1/DTD/svg11.dtd"><svg t="1697522053026" class="icon" viewBox="0 0 1024 1024" version="1.1" xmlns="http://www.w3.org/2000/svg" p-id="5889" xmlns:xlink="http://www.w3.org/1999/xlink" width="200" height="200"><path d="M868 584.4c7.3 2.9 14.2 6.1 20.8 9.5 0.5-2.3 1.3-4.6 1.7-6.9 29.6-150-28.2-307-147.5-400.1-12.6-9.8-28.9-13.8-44.7-10.6-15.9 3.1-29.6 13-37.6 27.1-13.5 23.7-7.4 54.1 14 70.9C760.4 341.2 802 450 783.3 558.5c-0.5 2.9-1.5 5.6-2.1 8.5 8.1 0.1 16.5 0.6 25 1.7 20.9 2.7 42.4 8.2 61.8 15.7z" fill="#FB536C" p-id="5890"></path><path d="M888.8 593.9c-2.8 13.4-5.9 26.8-10.1 40-4.6 14.3-14.6 25.9-28.1 32.6-7.8 3.9-16.3 5.9-24.8 5.9-6.1 0-12.2-1-18.2-3.1-28.7-9.9-43.8-40.5-34.3-69.6 3.4-10.5 5.7-21.6 8-32.8-34.4-0.5-63 8.3-70.3 30.8-12.9 39.9 13.3 122 79.6 138.3 63.2 15.6 133.5-34.2 144.1-83.5 4.8-22.1-15.7-43-45.9-58.6z" fill="#FDBA3E" p-id="5891"></path><path d="M807.6 669.4c5.9 2.1 12.1 3.1 18.2 3.1 8.5 0 16.9-2 24.8-5.9 13.5-6.7 23.4-18.3 28.1-32.6 4.3-13.2 7.3-26.6 10.1-40-6.6-3.4-13.4-6.6-20.8-9.5-19.4-7.5-40.9-13.1-61.7-15.8-8.6-1.1-16.9-1.6-25-1.7-2.2 11.2-4.6 22.3-8 32.8-9.4 29.1 5.6 59.6 34.3 69.6z" fill="#8F3694" p-id="5892"></path><path d="M632.2 770.7c-100.7 40.7-215.7 22.3-300.3-48.1-2.3-1.9-4.1-4.1-6.4-6.1-4.2 7-8.7 14-14 20.8-12.7 16.8-28.2 32.7-44.5 45.7-6.1 4.9-12.4 9.3-18.6 13.2 1.8 1.6 3.3 3.4 5.1 5 115.1 100.7 280 129.1 420.2 72.3 14.8-6 26.4-18.1 31.5-33.4 5.2-15.3 3.5-32.1-4.7-46.1-13.7-23.5-43.1-33.5-68.3-23.3z" fill="#FB536C" p-id="5893"></path><path d="M204.6 726.8c0.5-8.7 3-17 7.3-24.4 3.1-5.3 7-10.1 11.8-14.2 23-19.9 57-17.7 77.4 5.1 7.4 8.2 15.9 15.8 24.4 23.3 17.6-29.6 24.3-58.8 8.5-76.3-28.1-31.1-112.3-49.5-159.6-0.2-45.1 47-37.1 132.7 0.2 166.6 16.8 15.3 45.1 7.9 73.8-10.4-10.2-9.2-20.3-18.5-29.6-28.8-10-11.2-15.1-25.6-14.2-40.7z" fill="#FDBA3E" p-id="5894"></path><path d="M311.5 737.4c5.3-6.9 9.8-13.8 14-20.8-8.6-7.5-17-15.1-24.4-23.3-20.5-22.7-54.5-24.9-77.4-5.1-4.8 4.1-8.7 8.9-11.8 14.2-4.2 7.4-6.8 15.6-7.3 24.4-0.9 15.1 4.1 29.4 14.2 40.6 9.3 10.3 19.4 19.6 29.6 28.8 6.2-4 12.5-8.3 18.6-13.2 16.3-13 31.8-28.9 44.5-45.6z" fill="#8F3694" p-id="5895"></path><path d="M216.8 490.5c15.1-107.6 88.5-198 191.8-236 2.8-1 5.6-1.5 8.4-2.5-4-7.1-7.7-14.5-11-22.5-8.1-19.4-14.1-40.8-17.2-61.3-1.2-7.8-1.8-15.3-2.2-22.7-2.2 0.7-4.6 1.2-6.9 1.9C235 196.7 128 325.3 107 475.1c-2.2 15.8 2.5 31.9 13.2 44 10.7 12.2 26 19.1 42.3 19 27.2-0.2 50.5-20.6 54.3-47.6z" fill="#FB536C" p-id="5896"></path><path d="M468.6 142.2c7.3 4.8 13.2 11.2 17.5 18.5 3.1 5.3 5.2 11.1 6.4 17.3 5.7 29.8-13.2 58.1-43.1 64.5-10.8 2.3-21.6 5.9-32.4 9.5 16.8 30 38.7 50.4 61.8 45.5 41-8.8 99-72.5 80-138.1-18.1-62.5-96.4-98.5-144.4-83.1-21.6 7-29.4 35.1-27.8 69.1 13-4.3 26.2-8.3 39.7-11.2 14.7-3.2 29.7-0.3 42.3 8z" fill="#FDBA3E" p-id="5897"></path><path d="M406 229.5c3.3 8 7.1 15.4 11 22.5 10.8-3.7 21.6-7.2 32.4-9.5 29.9-6.4 48.8-34.7 43.1-64.5-1.2-6.2-3.4-12-6.4-17.3-4.2-7.4-10.2-13.7-17.5-18.5-12.6-8.3-27.6-11.1-42.2-8-13.6 2.9-26.7 7-39.7 11.2 0.3 7.4 1 14.9 2.2 22.7 3 20.6 9 42 17.1 61.4z" fill="#8F3694" p-id="5898"></path></svg>